<svg width="44" height="44" viewBox="0 0 44 44" fill="none" xmlns="http://www.w3.org/2000/svg">
  <path d="M0 20C0 10.5719 0 5.85786 2.92893 2.92893C5.85786 0 10.5719 0 20 0H24C33.4281 0 38.1421 0 41.0711 2.92893C44 5.85786 44 10.5719 44 20V24C44 33.4281 44 38.1421 41.0711 41.0711C38.1421 44 33.4281 44 24 44H20C10.5719 44 5.85786 44 2.92893 41.0711C0 38.1421 0 33.4281 0 24V20Z" fill="#872AB0"/>
  <path fill-rule="evenodd" clip-rule="evenodd" d="M26.0501 20.2359L30.9701 25.1206L35.8556 20.2673L38 22.3844L30.9707 29.3673L26.0501 24.482L18.291 32.1853L14.1277 28.0518L9.14373 33L7 30.8823L14.1277 23.8058L18.291 27.9392L26.0501 20.2359Z" fill="white"/>
  <path fill-rule="evenodd" clip-rule="evenodd" d="M26.0501 12L30.9701 16.8847L35.8556 12.0313L38 14.1484L30.9707 21.1314L26.0501 16.2461L18.291 23.9494L14.1277 19.8159L9.14373 24.7641L7 22.6463L14.1277 15.5698L18.291 19.7033L26.0501 12Z" fill="white"/>
</svg>
