<svg width="112" height="92" viewBox="0 0 112 92" fill="none" xmlns="http://www.w3.org/2000/svg">
  <path d="M76.5362 29.9493C76.5362 29.9493 72.4524 25.6257 63.1797 25V26.3652C63.1797 26.3652 68.2656 26.0697 74.5611 32.2667C69.8091 28.8479 63.03 26.7062 55.5 26.7062C47.9701 26.7062 41.1909 28.8476 36.4389 32.2667C42.7344 26.0697 47.8203 26.3652 47.8203 26.3652V25C38.5476 25.6257 34.4638 29.9493 34.4638 29.9493C27.3981 39.0504 27 58.9605 27 58.9605C33.6556 66.9811 42.0181 65.9576 42.0181 65.9576L45.0899 61.5208C41.1286 60.4491 38.2997 57.9889 36.5994 56.0731C41.3429 59.4257 48.054 61.5208 55.5 61.5208C62.946 61.5208 69.6571 59.426 74.4006 56.0731C72.7003 57.9886 69.8714 60.4491 65.9101 61.5208L68.9819 65.9576C68.9819 65.9576 77.3444 66.9818 84 58.9605C84.0006 58.9601 83.6023 39.0504 76.5362 29.9493ZM46.6261 53.3288C43.9555 53.3288 41.7907 51.0288 41.7907 48.1911C41.7907 45.3537 43.9555 43.0534 46.6261 43.0534C49.2966 43.0534 51.4614 45.3537 51.4614 48.1911C51.4614 51.0285 49.2966 53.3288 46.6261 53.3288ZM64.3746 53.3288C61.704 53.3288 59.5392 51.0288 59.5392 48.1911C59.5392 45.3537 61.704 43.0534 64.3746 43.0534C67.0451 43.0534 69.2099 45.3537 69.2099 48.1911C69.2099 51.0285 67.0454 53.3288 64.3746 53.3288Z" fill="#872AB0"/>
  <path fill-rule="evenodd" clip-rule="evenodd" d="M83.5816 72.8096C98.5423 72.8096 110.662 60.8017 110.662 45.9997H111.662C111.662 61.3633 99.0852 73.8096 83.5816 73.8096C68.0779 73.8096 55.5012 61.3633 55.5012 45.9997C55.5012 30.636 68.0779 18.1897 83.5816 18.1897V19.1897C68.6209 19.1897 56.5012 31.1976 56.5012 45.9997C56.5012 60.8017 68.6209 72.8096 83.5816 72.8096Z" fill="#23024D"/>
  <path fill-rule="evenodd" clip-rule="evenodd" d="M111.584 44.1704C111.636 44.8638 111.662 45.5642 111.662 46.2705H110.662C110.662 45.5888 110.637 44.9131 110.587 44.2442L111.584 44.1704ZM110.093 36.993C110.551 38.3032 110.915 39.6576 111.177 41.0481L110.194 41.233C109.942 39.8922 109.591 38.5864 109.149 37.3233L110.093 36.993ZM106.785 30.4508C107.572 31.6031 108.275 32.8172 108.887 34.0842L107.986 34.5187C107.397 33.297 106.718 32.1262 105.959 31.0148L106.785 30.4508ZM101.898 24.9861C102.96 25.9003 103.952 26.8924 104.866 27.9537L104.108 28.6063C103.226 27.5826 102.269 26.6256 101.246 25.7438L101.898 24.9861ZM95.7679 20.9653C97.0349 21.5766 98.2489 22.2801 99.4013 23.0673L98.8372 23.893C97.7258 23.1339 96.5551 22.4554 95.3334 21.866L95.7679 20.9653ZM88.8039 18.675C90.1945 18.9366 91.5489 19.3007 92.859 19.7591L92.5287 20.703C91.2657 20.261 89.9598 19.91 88.6191 19.6578L88.8039 18.675ZM83.5816 18.1902C84.2879 18.1902 84.9882 18.2163 85.6816 18.2676L85.6079 19.2648C84.939 19.2154 84.2633 19.1902 83.5816 19.1902V18.1902Z" fill="#23024D"/>
  <path fill-rule="evenodd" clip-rule="evenodd" d="M28.5801 19.1904C13.6194 19.1904 1.49976 31.1983 1.49976 46.0003H0.499756C0.499756 30.6367 13.0764 18.1904 28.5801 18.1904C44.0837 18.1904 56.6604 30.6367 56.6604 46.0003C56.6604 61.364 44.0837 73.8103 28.5801 73.8103V72.8103C43.5408 72.8103 55.6604 60.8024 55.6604 46.0003C55.6604 31.1983 43.5408 19.1904 28.5801 19.1904Z" fill="#23024D"/>
  <path fill-rule="evenodd" clip-rule="evenodd" d="M93.4029 24.5H95.4548V23.5H93.4029V24.5ZM86.2211 24.5H90.325V23.5H86.2211V24.5ZM79.0392 24.5H83.1431V23.5H79.0392V24.5ZM71.8574 24.5H75.9613V23.5H71.8574V24.5ZM64.6756 24.5H68.7795V23.5H64.6756V24.5ZM57.4938 24.5H61.5977V23.5H57.4938V24.5ZM50.312 24.5H54.4159V23.5H50.312V24.5ZM43.1301 24.5H47.234V23.5H43.1301V24.5ZM35.9483 24.5H40.0522V23.5H35.9483V24.5ZM28.7665 24.5H32.8704V23.5H28.7665V24.5ZM21.5847 24.5H25.6886V23.5H21.5847V24.5ZM16.4548 24.5H18.5068V23.5H16.4548V24.5Z" fill="#000633"/>
  <path fill-rule="evenodd" clip-rule="evenodd" d="M94.9548 67V24.5H95.9548V68H84.9773V74.6447L77.8038 68H15.9548V24.5H16.9548V67H78.1957L83.9773 72.3553V67H94.9548Z" fill="#000633"/>
  <path fill-rule="evenodd" clip-rule="evenodd" d="M0.577125 47.8296C0.525845 47.1362 0.499756 46.4358 0.499756 45.7295H1.49976C1.49976 46.4112 1.52493 47.0869 1.5744 47.7558L0.577125 47.8296ZM2.06866 55.007C1.61022 53.6968 1.24615 52.3424 0.98458 50.9519L1.96734 50.767C2.21955 52.1078 2.57057 53.4136 3.01254 54.6767L2.06866 55.007ZM5.37684 61.5492C4.5897 60.3969 3.88612 59.1828 3.27485 57.9158L4.17552 57.4813C4.76492 58.703 5.44341 59.8738 6.20258 60.9852L5.37684 61.5492ZM10.2633 67.0139C9.20198 66.0997 8.20981 65.1076 7.29567 64.0463L8.05335 63.3937C8.93513 64.4174 9.89218 65.3744 10.9159 66.2562L10.2633 67.0139ZM16.3938 71.0347C15.1267 70.4234 13.9127 69.7199 12.7603 68.9327L13.3244 68.107C14.4358 68.8661 15.6065 69.5446 16.8283 70.134L16.3938 71.0347ZM23.3577 73.325C21.9671 73.0634 20.6127 72.6993 19.3026 72.2409L19.6329 71.297C20.896 71.739 22.2018 72.09 23.5425 72.3422L23.3577 73.325ZM28.5801 73.8098C27.8737 73.8098 27.1734 73.7837 26.48 73.7324L26.5537 72.7352C27.2226 72.7846 27.8984 72.8098 28.5801 72.8098V73.8098Z" fill="#23024D"/>
  <path fill-rule="evenodd" clip-rule="evenodd" d="M56.2267 90.0684C31.5197 90.0684 11.499 70.237 11.499 45.784H10.499C10.499 70.7985 30.9767 91.0684 56.2267 91.0684C81.4768 91.0684 101.954 70.7985 101.954 45.784C101.954 20.7696 81.4768 0.499725 56.2267 0.499725V1.49973C80.9338 1.49973 100.954 21.3311 100.954 45.784C100.954 70.237 80.9338 90.0684 56.2267 90.0684Z" fill="#23024D"/>
  <path fill-rule="evenodd" clip-rule="evenodd" d="M10.5443 44.1755C10.5142 44.8561 10.499 45.5406 10.499 46.2285H11.499C11.499 45.5553 11.5139 44.8856 11.5433 44.2197L10.5443 44.1755ZM11.4197 37.054C11.1487 38.3848 10.9354 39.7366 10.7827 41.1066L11.7766 41.2174C11.9259 39.8773 12.1345 38.5551 12.3996 37.2536L11.4197 37.054ZM13.4036 30.1561C12.9249 31.4309 12.5015 32.7327 12.1363 34.0587L13.1004 34.3242C13.4576 33.0275 13.8716 31.7543 14.3398 30.5076L13.4036 30.1561ZM16.4488 23.6574C15.7743 24.8435 15.1513 26.0628 14.5829 27.3121L15.4931 27.7263C16.0491 26.5044 16.6584 25.3119 17.3181 24.1517L16.4488 23.6574ZM20.474 17.7167C19.6213 18.7846 18.8154 19.8916 18.0594 21.0346L18.8935 21.5862C19.6329 20.4682 20.4213 19.3854 21.2554 18.3407L20.474 17.7167ZM25.3755 12.4757C24.3657 13.3992 23.3975 14.3675 22.474 15.3773L23.2119 16.0521C24.1153 15.0643 25.0625 14.1171 26.0504 13.2137L25.3755 12.4757ZM31.0328 8.06119C29.8898 8.81715 28.7829 9.62305 27.715 10.4758L28.3389 11.2572C29.3836 10.423 30.4665 9.63471 31.5845 8.89526L31.0328 8.06119ZM37.3104 4.5847C36.061 5.15311 34.8417 5.77608 33.6556 6.45055L34.1499 7.31984C35.3101 6.66013 36.5026 6.05084 37.7245 5.49492L37.3104 4.5847ZM44.0569 2.1381C42.731 2.50329 41.4291 2.92668 40.1543 3.40536L40.5058 4.34154C41.7526 3.87341 43.0257 3.45934 44.3225 3.10221L44.0569 2.1381ZM51.1048 0.784481C49.7348 0.937195 48.3831 1.15044 47.0523 1.4215L47.2518 2.40138C48.5534 2.13629 49.8755 1.92771 51.2156 1.77833L51.1048 0.784481ZM56.2267 0.500793C55.5388 0.500793 54.8544 0.515991 54.1738 0.546066L54.2179 1.54509C54.8838 1.51566 55.5535 1.50079 56.2267 1.50079V0.500793Z" fill="#000633"/>
</svg>
