<svg width="92" height="92" viewBox="0 0 92 92" fill="none" xmlns="http://www.w3.org/2000/svg">
<path d="M38.9414 45.5699L23.6522 55.2355V35.4961L38.9414 45.5699Z" fill="#872AB0"/>
<path d="M69.001 35.4961V55.2355L53.7117 45.5699L69.001 35.4961Z" fill="#872AB0"/>
<path d="M26.4876 29.7441H66.1705C67.5849 29.7441 68.7073 30.7986 68.9199 32.1563L46.329 47.0402L23.7381 32.1563C23.9507 30.7986 25.0731 29.7441 26.4876 29.7441Z" fill="#872AB0"/>
<path d="M41.518 47.2646L45.5288 49.9063C45.7669 50.0622 46.0362 50.1387 46.3083 50.1387C46.5804 50.1387 46.8497 50.0622 47.0878 49.9063L51.0986 47.2617L68.8936 58.5175C68.6753 59.8639 67.5585 60.9098 66.1498 60.9098H26.4669C25.0581 60.9098 23.9413 59.8639 23.7231 58.5175L41.518 47.2646Z" fill="#872AB0"/>
<path fill-rule="evenodd" clip-rule="evenodd" d="M46.2274 1.5C70.9345 1.5 90.9551 21.3314 90.9551 45.7843H91.9551C91.9551 20.7698 71.4774 0.5 46.2274 0.5C20.9773 0.5 0.499634 20.7698 0.499634 45.7843C0.499634 70.7988 20.9773 91.0686 46.2274 91.0686V90.0686C21.5203 90.0686 1.49963 70.2372 1.49963 45.7843C1.49963 21.3314 21.5203 1.5 46.2274 1.5Z" fill="#23024D"/>
<path fill-rule="evenodd" clip-rule="evenodd" d="M91.9098 47.3928C91.9399 46.7122 91.9551 46.0278 91.9551 45.3398H90.9551C90.9551 46.0131 90.9402 46.6828 90.9108 47.3487L91.9098 47.3928ZM91.0344 54.5143C91.3054 53.1835 91.5187 51.8318 91.6714 50.4618L90.6775 50.351C90.5282 51.6911 90.3196 53.0132 90.0545 54.3148L91.0344 54.5143ZM89.0505 61.4123C89.5292 60.1375 89.9526 58.8356 90.3178 57.5097L89.3537 57.2441C88.9965 58.5409 88.5825 59.814 88.1143 61.0607L89.0505 61.4123ZM86.0053 67.911C86.6798 66.7248 87.3028 65.5056 87.8712 64.2562L86.961 63.8421C86.405 65.064 85.7957 66.2565 85.136 67.4167L86.0053 67.911ZM81.9801 73.8516C82.8328 72.7837 83.6387 71.6767 84.3947 70.5338L83.5606 69.9821C82.8212 71.1001 82.0328 72.183 81.1987 73.2276L81.9801 73.8516ZM77.0786 79.0926C78.0884 78.1691 79.0566 77.2009 79.9801 76.1911L79.2422 75.5162C78.3388 76.5041 77.3916 77.4513 76.4037 78.3547L77.0786 79.0926ZM71.4213 83.5072C72.5643 82.7512 73.6712 81.9453 74.7392 81.0926L74.1152 80.3111C73.0705 81.1453 71.9876 81.9337 70.8696 82.6731L71.4213 83.5072ZM65.1437 86.9837C66.3931 86.4152 67.6124 85.7923 68.7985 85.1178L68.3042 84.2485C67.144 84.9082 65.9515 85.5175 64.7296 86.0734L65.1437 86.9837ZM58.3972 89.4303C59.7231 89.0651 61.025 88.6417 62.2998 88.163L61.9483 87.2268C60.7015 87.695 59.4284 88.109 58.1316 88.4662L58.3972 89.4303ZM51.3493 90.7839C52.7193 90.6312 54.071 90.4179 55.4018 90.1469L55.2023 89.167C53.9007 89.4321 52.5786 89.6407 51.2385 89.79L51.3493 90.7839ZM46.2274 91.0676C46.9153 91.0676 47.5997 91.0524 48.2803 91.0223L48.2362 90.0233C47.5703 90.0527 46.9006 90.0676 46.2274 90.0676V91.0676Z" fill="#23024D"/>
<path fill-rule="evenodd" clip-rule="evenodd" d="M6.6837 25.4202L46.4566 51.0964L85.7285 25.4186L85.1813 24.5817L46.4532 49.9039L7.22607 24.5801L6.6837 25.4202Z" fill="#23024D"/>
<path fill-rule="evenodd" clip-rule="evenodd" d="M83.4031 24.5H85.4551V23.5H83.4031V24.5ZM76.2213 24.5H80.3252V23.5H76.2213V24.5ZM69.0395 24.5H73.1434V23.5H69.0395V24.5ZM61.8577 24.5H65.9616V23.5H61.8577V24.5ZM54.6759 24.5H58.7798V23.5H54.6759V24.5ZM47.494 24.5H51.5979V23.5H47.494V24.5ZM40.3122 24.5H44.4161V23.5H40.3122V24.5ZM33.1304 24.5H37.2343V23.5H33.1304V24.5ZM25.9486 24.5H30.0525V23.5H25.9486V24.5ZM18.7668 24.5H22.8707V23.5H18.7668V24.5ZM11.5849 24.5H15.6888V23.5H11.5849V24.5ZM6.45508 24.5H8.50702V23.5H6.45508V24.5Z" fill="#23024D"/>
<path fill-rule="evenodd" clip-rule="evenodd" d="M84.9551 67V24.5H85.9551V68H5.95508V24.5H6.95508V67H84.9551Z" fill="#23024D"/>
<path fill-rule="evenodd" clip-rule="evenodd" d="M85.3848 24.2548L84.525 23.7441L45.4588 89.5138L7.38677 24.2475L6.52299 24.7514L45.451 91.4851L85.3848 24.2548Z" fill="#23024D"/>
</svg>
