<svg width="92" height="92" viewBox="0 0 92 92" fill="none" xmlns="http://www.w3.org/2000/svg">
<path d="M46 22.041C32.1875 22.041 21 33.041 21 46.6077C21 57.4639 28.1625 66.6702 38.0938 69.916C39.3438 70.1473 39.8021 69.3869 39.8021 68.7348C39.8021 68.1514 39.7812 66.6056 39.7708 64.5577C32.8167 66.0389 31.35 61.2619 31.35 61.2619C30.2125 58.4264 28.5687 57.6681 28.5687 57.6681C26.3042 56.1452 28.7437 56.1764 28.7437 56.1764C31.2542 56.3473 32.5729 58.7077 32.5729 58.7077C34.8021 62.4639 38.425 61.3785 39.8542 60.7514C40.0792 59.1618 40.7229 58.0806 41.4375 57.466C35.8854 56.8514 30.05 54.7389 30.05 45.3264C30.05 42.6452 31.0187 40.4535 32.6229 38.7348C32.3417 38.1139 31.4979 35.616 32.8417 32.2327C32.8417 32.2327 34.9354 31.5743 39.7167 34.7514C41.7167 34.2056 43.8417 33.9348 45.9667 33.9223C48.0917 33.9348 50.2167 34.2056 52.2167 34.7514C56.9667 31.5743 59.0604 32.2327 59.0604 32.2327C60.4042 35.616 59.5604 38.1139 59.3104 38.7348C60.9042 40.4535 61.8729 42.6452 61.8729 45.3264C61.8729 54.7639 56.0292 56.841 50.4667 57.4452C51.3417 58.1827 52.1542 59.6889 52.1542 61.991C52.1542 65.2785 52.1229 67.9202 52.1229 68.7181C52.1229 69.3619 52.5604 70.1306 53.8417 69.8848C63.8438 66.6598 71 57.4473 71 46.6077C71 33.041 59.8062 22.041 46 22.041Z" fill="#872AB0"/>
<path fill-rule="evenodd" clip-rule="evenodd" d="M1.50055 45.5632C1.6208 21.212 21.5951 1.5 46.2277 1.5C70.9348 1.5 90.9554 21.3314 90.9554 45.7843C90.9554 70.2372 70.9348 90.0686 46.2277 90.0686V90.0676C45.5545 90.0676 44.8848 90.0527 44.2189 90.0233L44.1748 91.0223C44.8554 91.0524 45.5398 91.0676 46.2277 91.0676V91.0686C71.4778 91.0686 91.9554 70.7988 91.9554 45.7843C91.9554 20.7698 71.4778 0.5 46.2277 0.5C21.1274 0.5 0.743016 20.5302 0.502157 45.3398H0.5C0.5 45.4143 0.500178 45.4888 0.500534 45.5631C0.500178 45.6368 0.5 45.7106 0.5 45.7843H0.502116C0.507244 46.3227 0.52168 46.859 0.545271 47.3928L1.5443 47.3487C1.51813 46.7565 1.50347 46.1612 1.50055 45.5632ZM0.783688 50.4618C0.936402 51.8318 1.14965 53.1835 1.42071 54.5143L2.40059 54.3148C2.13549 53.0132 1.92691 51.6911 1.77753 50.351L0.783688 50.4618ZM2.13731 57.5097C2.50249 58.8356 2.92589 60.1375 3.40457 61.4123L4.34074 61.0607C3.87261 59.814 3.45855 58.5409 3.10141 57.2441L2.13731 57.5097ZM4.5839 64.2562C5.15231 65.5056 5.77528 66.7248 6.44975 67.911L7.31904 67.4167C6.65934 66.2565 6.05004 65.064 5.49413 63.8421L4.5839 64.2562ZM8.06039 70.5338C8.81635 71.6767 9.62225 72.7837 10.475 73.8516L11.2564 73.2276C10.4222 72.183 9.63391 71.1001 8.89446 69.9821L8.06039 70.5338ZM12.4749 76.1911C13.3984 77.2009 14.3667 78.1691 15.3765 79.0926L16.0513 78.3547C15.0635 77.4513 14.1163 76.5041 13.2129 75.5162L12.4749 76.1911ZM17.7159 81.0926C18.7838 81.9453 19.8908 82.7512 21.0338 83.5072L21.5854 82.6731C20.4674 81.9337 19.3846 81.1453 18.3399 80.3111L17.7159 81.0926ZM23.6566 85.1178C24.8427 85.7923 26.062 86.4153 27.3114 86.9837L27.7255 86.0734C26.5036 85.5175 25.3111 84.9082 24.1509 84.2485L23.6566 85.1178ZM30.1553 88.163C31.4301 88.6417 32.7319 89.0651 34.0579 89.4303L34.3234 88.4662C33.0267 88.109 31.7535 87.695 30.5068 87.2268L30.1553 88.163ZM37.0532 90.1469C38.384 90.4179 39.7358 90.6312 41.1058 90.7839L41.2166 89.79C39.8765 89.6407 38.5544 89.4321 37.2528 89.167L37.0532 90.1469Z" fill="#23024D"/>
<path fill-rule="evenodd" clip-rule="evenodd" d="M71.5007 64.8726C71.4316 78.7523 60.0459 89.9912 46.0005 89.9912C31.9123 89.9912 20.5 78.6837 20.5 64.7456C20.5 50.8075 31.9123 39.5 46.0005 39.5V39.5004C46.6424 39.5004 47.2788 39.5242 47.9086 39.5707L47.9824 38.5735C47.328 38.5251 46.6671 38.5004 46.0005 38.5004V38.5C31.3693 38.5 19.5 50.2459 19.5 64.7456C19.5 79.2453 31.3693 90.9912 46.0005 90.9912C60.5457 90.9912 72.3614 79.3829 72.4997 65.0009H72.501C72.501 64.9582 72.5009 64.9154 72.5007 64.8727C72.5009 64.8303 72.501 64.788 72.501 64.7456H72.4998C72.4943 64.1655 72.4702 63.5898 72.428 63.019L71.4307 63.0928C71.4742 63.6807 71.4977 64.2742 71.5007 64.8726ZM72.0434 60.0724C71.7966 58.7601 71.453 57.4819 71.0203 56.2454L70.0764 56.5757C70.4926 57.7651 70.8232 58.9947 71.0607 60.2573L72.0434 60.0724ZM69.882 53.5002C69.3051 52.3045 68.6411 51.1587 67.8983 50.0712L67.0725 50.6353C67.7874 51.6818 68.4263 52.7843 68.9813 53.9347L69.882 53.5002ZM66.0874 47.7147C65.2247 46.7131 64.2884 45.7767 63.2868 44.914L62.6341 45.6717C63.5982 46.502 64.4994 47.4033 65.3297 48.3673L66.0874 47.7147ZM60.9302 43.1032C59.8427 42.3603 58.697 41.6963 57.5012 41.1194L57.0667 42.0201C58.2171 42.5751 59.3196 43.214 60.3661 43.9289L60.9302 43.1032ZM54.756 39.9811C53.5196 39.5484 52.2413 39.2048 50.929 38.958L50.7442 39.9408C52.0067 40.1782 53.2363 40.5088 54.4257 40.925L54.756 39.9811Z" fill="#000633"/>
<path fill-rule="evenodd" clip-rule="evenodd" d="M90.9548 43.1828L90.9542 8.97424L46.4404 91.2372L45.7535 90.8656L45.0585 91.233L1.59244 9.01471L1.5918 43.1823L0.591797 43.1823L0.592479 6.99919L1.53451 6.76551L45.7528 90.4066L91.0144 6.76172L91.9541 6.99966L91.9548 43.1828L90.9548 43.1828Z" fill="black"/>
</svg>
