<svg width="92" height="92" viewBox="0 0 92 92" fill="none" xmlns="http://www.w3.org/2000/svg">
    <path fill-rule="evenodd" clip-rule="evenodd" d="M49 46.5C49 55.6127 41.6127 63 32.5 63C23.3873 63 16 55.6127 16 46.5C16 37.3873 23.3873 30 32.5 30C41.6127 30 49 37.3873 49 46.5ZM66.6 46.5C66.6 54.9039 62.9884 61.7167 58.5333 61.7167C54.0782 61.7167 50.4667 54.9039 50.4667 46.5C50.4667 38.0961 54.0782 31.2833 58.5333 31.2833C62.9884 31.2833 66.6 38.0961 66.6 46.5ZM71.55 60.25C73.0688 60.25 74.3 54.0939 74.3 46.5C74.3 38.9061 73.0688 32.75 71.55 32.75C70.0312 32.75 68.8 38.9061 68.8 46.5C68.8 54.0939 70.0312 60.25 71.55 60.25Z" fill="#872AB0"/>
    <path fill-rule="evenodd" clip-rule="evenodd" d="M45.7274 90.5684C70.4345 90.5684 90.4551 70.737 90.4551 46.284H91.4551C91.4551 71.2985 70.9774 91.5684 45.7274 91.5684C20.4773 91.5684 -0.000366211 71.2985 -0.000366211 46.284C-0.000366211 21.2696 20.4773 0.999725 45.7274 0.999725V1.99973C21.0203 1.99973 0.999634 21.8311 0.999634 46.284C0.999634 70.737 21.0203 90.5684 45.7274 90.5684Z" fill="#23024D"/>
    <path d="M46 91C32.7452 91 22 70.8528 22 46C22 21.1472 32.7452 1 46 1C59.2548 1 70 21.1472 70 46" stroke="#000633"/>
    <path d="M12 46C12 41.0294 27.2223 37 46 37C64.7777 37 80 41.0294 80 46C80 50.9706 64.7777 55 46 55" stroke="#000633"/>
    <path d="M46 76C42.6863 76 40 62.5685 40 46C40 29.4315 42.6863 16 46 16C49.3137 16 52 29.4315 52 46" stroke="#000633"/>
    <path d="M46 91C59.2548 91 70 70.4051 70 45" stroke="#000633" stroke-dasharray="4 3"/>
    <path d="M12 46C12 50.9706 27.67 55 47 55" stroke="#000633" stroke-dasharray="4 3"/>
    <path d="M46 76C49.3137 76 52 62.1208 52 45" stroke="#000633" stroke-dasharray="4 3"/>
    <path fill-rule="evenodd" clip-rule="evenodd" d="M91.4098 44.6755C91.4399 45.3561 91.4551 46.0406 91.4551 46.7285H90.4551C90.4551 46.0553 90.4402 45.3856 90.4108 44.7197L91.4098 44.6755ZM90.5344 37.554C90.8054 38.8848 91.0187 40.2366 91.1714 41.6066L90.1775 41.7174C90.0282 40.3773 89.8196 39.0551 89.5545 37.7536L90.5344 37.554ZM88.5505 30.6561C89.0292 31.9309 89.4526 33.2327 89.8178 34.5587L88.8537 34.8242C88.4965 33.5275 88.0825 32.2543 87.6143 31.0076L88.5505 30.6561ZM85.5053 24.1574C86.1798 25.3435 86.8028 26.5628 87.3712 27.8121L86.461 28.2263C85.905 27.0044 85.2957 25.8119 84.636 24.6517L85.5053 24.1574ZM81.4801 18.2167C82.3328 19.2846 83.1387 20.3916 83.8947 21.5346L83.0606 22.0862C82.3212 20.9682 81.5328 19.8854 80.6987 18.8407L81.4801 18.2167ZM76.5786 12.9757C77.5884 13.8992 78.5566 14.8675 79.4801 15.8773L78.7422 16.5521C77.8388 15.5643 76.8916 14.6171 75.9037 13.7137L76.5786 12.9757ZM70.9213 8.56119C72.0643 9.31715 73.1712 10.123 74.2392 10.9758L73.6152 11.7572C72.5705 10.923 71.4876 10.1347 70.3696 9.39526L70.9213 8.56119ZM64.6437 5.0847C65.8931 5.65311 67.1124 6.27608 68.2985 6.95055L67.8042 7.81984C66.644 7.16013 65.4515 6.55084 64.2296 5.99492L64.6437 5.0847ZM57.8972 2.6381C59.2231 3.00329 60.525 3.42668 61.7998 3.90536L61.4483 4.84154C60.2015 4.37341 58.9284 3.95934 57.6316 3.60221L57.8972 2.6381ZM50.8493 1.28448C52.2193 1.43719 53.571 1.65044 54.9018 1.9215L54.7023 2.90138C53.4007 2.63629 52.0786 2.42771 50.7385 2.27833L50.8493 1.28448ZM45.7274 1.00079C46.4153 1.00079 47.0997 1.01599 47.7803 1.04607L47.7362 2.04509C47.0703 2.01566 46.4006 2.00079 45.7274 2.00079V1.00079Z" fill="#23024D"/>
</svg>
