<svg width="92" height="92" viewBox="0 0 92 92" fill="none" xmlns="http://www.w3.org/2000/svg">
<path d="M45.9995 71C59.8066 71 70.9995 59.8071 70.9995 46C70.9995 32.1929 59.8066 21 45.9995 21C32.1924 21 20.9995 32.1929 20.9995 46C20.9995 59.8071 32.1924 71 45.9995 71Z" fill="#872AB0"/>
<path d="M62.6747 45.9999C62.649 45.2962 62.4203 44.615 62.0161 44.0384C61.6119 43.4617 61.0496 43.0143 60.3969 42.75C59.7442 42.4858 59.029 42.416 58.3375 42.549C57.646 42.6821 57.0078 43.0123 56.4997 43.4999C53.6558 41.5667 50.3127 40.4987 46.8747 40.4249L48.4997 32.6249L53.8497 33.7499C53.9133 34.3411 54.1856 34.8903 54.6176 35.2989C55.0496 35.7075 55.6131 35.9487 56.2069 35.9792C56.8008 36.0098 57.386 35.8277 57.8577 35.4656C58.3294 35.1035 58.6565 34.5852 58.7805 34.0036C58.9044 33.4221 58.817 32.8154 58.5339 32.2924C58.2509 31.7695 57.7907 31.3646 57.236 31.1504C56.6813 30.9362 56.0684 30.9267 55.5074 31.1236C54.9463 31.3206 54.4738 31.711 54.1747 32.2249L48.0497 30.9999C47.9495 30.978 47.846 30.9761 47.7451 30.9944C47.6442 31.0128 47.5479 31.0509 47.4619 31.1067C47.3759 31.1625 47.3018 31.2349 47.2439 31.3195C47.186 31.4042 47.1455 31.4995 47.1247 31.5999L45.2747 40.2749C41.7944 40.3274 38.4054 41.3962 35.5247 43.3499C35.1393 42.9873 34.6797 42.7128 34.1777 42.5455C33.6756 42.3782 33.1432 42.322 32.6174 42.3809C32.0915 42.4398 31.5847 42.6123 31.1321 42.8865C30.6795 43.1608 30.292 43.5301 29.9963 43.969C29.7007 44.4079 29.504 44.9058 29.4199 45.4282C29.3358 45.9507 29.3663 46.4852 29.5094 46.9947C29.6524 47.5041 29.9044 47.9764 30.2481 48.3788C30.5918 48.7812 31.0189 49.104 31.4997 49.3249C31.4716 49.6911 31.4716 50.0588 31.4997 50.4249C31.4997 56.0249 38.0247 60.5749 46.0747 60.5749C54.1247 60.5749 60.6497 56.0249 60.6497 50.4249C60.6779 50.0588 60.6779 49.6911 60.6497 49.3249C61.2666 49.0183 61.7842 48.5433 62.1425 47.955C62.5009 47.3666 62.6854 46.6888 62.6747 45.9999V45.9999ZM37.6747 48.4999C37.6747 48.0055 37.8213 47.5221 38.096 47.111C38.3708 46.6999 38.7612 46.3795 39.218 46.1902C39.6748 46.001 40.1775 45.9515 40.6624 46.048C41.1474 46.1444 41.5929 46.3825 41.9425 46.7322C42.2921 47.0818 42.5302 47.5273 42.6267 48.0122C42.7231 48.4972 42.6736 48.9998 42.4844 49.4566C42.2952 49.9135 41.9748 50.3039 41.5636 50.5786C41.1525 50.8533 40.6692 50.9999 40.1747 50.9999C39.8464 50.9999 39.5213 50.9353 39.218 50.8096C38.9147 50.684 38.6391 50.4998 38.407 50.2677C38.1748 50.0356 37.9907 49.76 37.865 49.4566C37.7394 49.1533 37.6747 48.8282 37.6747 48.4999V48.4999ZM52.1997 55.3749C50.426 56.7116 48.2438 57.3919 46.0247 57.2999C43.8057 57.3919 41.6234 56.7116 39.8497 55.3749C39.7434 55.2454 39.6891 55.081 39.6973 54.9136C39.7055 54.7462 39.7757 54.5879 39.8942 54.4694C40.0127 54.3509 40.171 54.2807 40.3384 54.2725C40.5057 54.2643 40.6702 54.3186 40.7997 54.4249C42.3028 55.5274 44.1375 56.0831 45.9997 55.9999C47.8642 56.1013 49.7075 55.5633 51.2247 54.4749C51.3573 54.3456 51.5359 54.2743 51.7211 54.2767C51.8128 54.2778 51.9033 54.297 51.9876 54.3332C52.0719 54.3694 52.1482 54.4218 52.2122 54.4874C52.2762 54.5531 52.3267 54.6307 52.3607 54.7159C52.3947 54.801 52.4117 54.8921 52.4105 54.9838C52.4093 55.0755 52.3901 55.166 52.354 55.2503C52.3178 55.3346 52.2654 55.4109 52.1997 55.4749V55.3749ZM51.7497 51.0999C51.2553 51.0999 50.7719 50.9533 50.3608 50.6786C49.9497 50.4039 49.6292 50.0135 49.44 49.5566C49.2508 49.0998 49.2013 48.5972 49.2978 48.1122C49.3942 47.6273 49.6323 47.1818 49.982 46.8322C50.3316 46.4825 50.777 46.2444 51.262 46.148C51.7469 46.0515 52.2496 46.101 52.7064 46.2902C53.1632 46.4795 53.5537 46.7999 53.8284 47.211C54.1031 47.6221 54.2497 48.1055 54.2497 48.5999C54.2633 48.9387 54.2078 49.2766 54.0867 49.5933C53.9656 49.9099 53.7814 50.1986 53.5452 50.4418C53.309 50.685 53.0258 50.8776 52.7129 51.0079C52.3999 51.1383 52.0637 51.2036 51.7247 51.1999L51.7497 51.0999Z" fill="white"/>
<path fill-rule="evenodd" clip-rule="evenodd" d="M46.2267 90.0693C21.5197 90.0693 1.49902 70.2379 1.49902 45.785H0.499023C0.499023 70.7995 20.9767 91.0693 46.2267 91.0693C71.4768 91.0693 91.9545 70.7995 91.9545 45.785C91.9545 20.7706 71.4768 0.500702 46.2267 0.500702V1.5007C70.9338 1.5007 90.9545 21.3321 90.9545 45.785C90.9545 70.2379 70.9338 90.0693 46.2267 90.0693Z" fill="#23024D"/>
<path fill-rule="evenodd" clip-rule="evenodd" d="M0.544294 44.176C0.514219 44.8566 0.499023 45.5411 0.499023 46.229H1.49902C1.49902 45.5558 1.51389 44.8861 1.54332 44.2202L0.544294 44.176ZM1.41973 37.0545C1.14867 38.3853 0.935425 39.7371 0.782712 41.1071L1.77656 41.2179C1.92594 39.8778 2.13452 38.5556 2.39961 37.2541L1.41973 37.0545ZM3.40359 30.1566C2.92491 31.4314 2.50152 32.7332 2.13633 34.0592L3.10043 34.3247C3.45757 33.028 3.87163 31.7548 4.33977 30.5081L3.40359 30.1566ZM6.44878 23.6579C5.7743 24.844 5.15134 26.0633 4.58292 27.3126L5.49315 27.7268C6.04907 26.5049 6.65836 25.3123 7.31806 24.1522L6.44878 23.6579ZM10.474 17.7172C9.62127 18.7851 8.81537 19.8921 8.05942 21.0351L8.89349 21.5867C9.63294 20.4687 10.4213 19.3859 11.2554 18.3412L10.474 17.7172ZM15.3755 12.4762C14.3657 13.3997 13.3975 14.3679 12.474 15.3778L13.2119 16.0526C14.1153 15.0648 15.0625 14.1176 16.0504 13.2142L15.3755 12.4762ZM21.0328 8.06168C19.8898 8.81763 18.7829 9.62354 17.715 10.4763L18.3389 11.2577C19.3836 10.4235 20.4665 9.6352 21.5845 8.89575L21.0328 8.06168ZM27.3104 4.58519C26.061 5.1536 24.8417 5.77657 23.6556 6.45104L24.1499 7.32032C25.3101 6.66062 26.5026 6.05133 27.7245 5.49541L27.3104 4.58519ZM34.0569 2.13859C32.731 2.50378 31.4291 2.92717 30.1543 3.40585L30.5058 4.34203C31.7526 3.87389 33.0257 3.45983 34.3225 3.1027L34.0569 2.13859ZM41.1048 0.784969C39.7348 0.937683 38.3831 1.15093 37.0523 1.42199L37.2518 2.40187C38.5534 2.13678 39.8755 1.9282 41.2156 1.77882L41.1048 0.784969ZM46.2267 0.501282C45.5388 0.501282 44.8544 0.516479 44.1738 0.546555L44.2179 1.54558C44.8838 1.51615 45.5535 1.50128 46.2267 1.50128V0.501282Z" fill="#000633"/>
<path fill-rule="evenodd" clip-rule="evenodd" d="M23.7228 42.0819C30.2271 40.7289 38.0152 39.9993 46.0118 40C46.0866 40 46.1615 40.0001 46.2364 40.0002C54.3119 40.0148 62.1533 40.7737 68.6598 42.1625C75.2108 43.5608 79.9285 45.4967 82.3137 47.5927C83.491 48.6272 83.9601 49.5754 83.9975 50.3903C84.0343 51.1934 83.6628 52.1191 82.6017 53.1425L83.2959 53.8623C83.7564 53.4181 84.1234 52.9679 84.3972 52.5142L84.402 52.5172C84.795 51.8622 85 51.1882 85 50.5C85 49.8118 84.795 49.1378 84.402 48.4828L84.3972 48.4858C84.0622 47.9305 83.5877 47.3809 82.9738 46.8415C82.4944 46.4202 81.9344 46.009 81.2983 45.6098L81.3011 45.6052C80.2325 44.9363 78.9516 44.3026 77.4841 43.7118L77.4837 43.713C76.1637 43.1806 74.6886 42.6817 73.0732 42.2223C71.8885 41.8854 70.6318 41.5703 69.3104 41.2794L69.3103 41.2802C69.1639 41.248 69.0166 41.2161 68.8685 41.1845C67.6629 40.9272 66.4129 40.6914 65.1252 40.4777L65.1256 40.4754C63.7658 40.2494 62.3553 40.0467 60.9005 39.8692L60.9001 39.8724C59.5153 39.7036 58.0989 39.5585 56.6581 39.4378L56.6583 39.4347C55.2689 39.3186 53.8478 39.2246 52.3998 39.1541L52.3998 39.1559C50.9915 39.0868 49.5675 39.0404 48.1339 39.0172L48.1339 39.0169C47.4274 39.0057 46.716 39 46 39C45.284 39 44.5726 39.0057 43.8661 39.0169L43.8661 39.0172C42.4328 39.0404 41.0088 39.0868 39.6002 39.1559L39.6001 39.1541C38.1522 39.2246 36.7311 39.3186 35.3416 39.4347L35.3419 39.4378C33.9014 39.5584 32.485 39.7035 31.0999 39.8724L31.0995 39.8692C29.6447 40.0467 28.2342 40.2494 26.8744 40.4754L26.8748 40.4777C25.7248 40.6685 24.6046 40.877 23.5191 41.1028C23.2398 41.1609 22.9633 41.2201 22.6897 41.2802L22.6896 41.2794C21.3911 41.5653 20.155 41.8744 18.9885 42.2048C18.9147 42.2257 18.8412 42.2467 18.768 42.2677C17.215 42.7144 15.7932 43.198 14.5163 43.713L14.5159 43.7118C13.0484 44.3026 11.7675 44.9363 10.6989 45.6052L10.7017 45.6098C10.1328 45.9669 9.62465 46.3336 9.18053 46.7086C8.49149 47.2904 7.96545 47.8847 7.60284 48.4858L7.59796 48.4828C7.205 49.1378 7 49.8118 7 50.5C7 50.5017 7 50.5035 7 50.5052C7.00103 51.1916 7.20599 51.8639 7.59797 52.5172L7.60284 52.5142C7.84892 52.9221 8.17043 53.3272 8.56759 53.7277C9.13504 54.2999 9.84976 54.8555 10.7017 55.3902L10.6989 55.3948C11.7675 56.0637 13.0484 56.6974 14.5159 57.2882L14.5163 57.287C15.7364 57.7791 17.0899 58.243 18.5659 58.6737C18.7394 58.7243 18.9146 58.7745 19.0914 58.8242C20.2277 59.1437 21.4292 59.4431 22.6896 59.7206L22.6897 59.7198C24.03 60.0144 25.4282 60.2823 26.8748 60.5223L26.8744 60.5246C28.2342 60.7506 29.6447 60.9533 31.0995 61.1308L31.0999 61.1276C32.484 61.2963 33.9003 61.4415 35.3419 61.5622L35.3417 61.5653C36.7311 61.6814 38.1522 61.7754 39.6001 61.8459L39.6002 61.8441C41.0077 61.9132 42.4317 61.9596 43.8661 61.9828L43.8661 61.9831C44.5726 61.9943 45.284 62 46 62C46.716 62 47.4274 61.9943 48.1339 61.9831L48.118 60.9832C47.4168 60.9944 46.7107 61 46 61C45.4116 61 44.8262 60.9961 44.2442 60.9885L44.2442 60.9883C36.1766 60.8802 28.4452 60.0311 22.1345 58.5693C15.7698 57.0951 11.348 55.1112 9.27765 53.0235C8.2695 52.0069 7.93924 51.0914 8.00913 50.291C8.08097 49.4684 8.59651 48.5105 9.82568 47.4726C12.3084 45.3762 17.1156 43.4562 23.7228 42.0819ZM56.6584 61.5653C55.2689 61.6814 53.8478 61.7754 52.3999 61.8459L52.3512 60.8471C53.7878 60.7772 55.1973 60.6839 56.5751 60.5688L56.6584 61.5653ZM60.7794 60.1382L60.9005 61.1308C62.3553 60.9533 63.7658 60.7506 65.1256 60.5246L64.9616 59.5381C63.6167 59.7617 62.2206 59.9624 60.7794 60.1382ZM69.0954 58.744L69.3104 59.7206C70.7716 59.3989 72.1538 59.0477 73.4468 58.67L73.1664 57.7101C71.8971 58.0809 70.5369 58.4266 69.0954 58.744ZM77.1107 56.3605L77.4841 57.2882C78.9516 56.6974 80.2325 56.0637 81.3011 55.3948L80.7705 54.5471C79.7634 55.1776 78.5378 55.786 77.1107 56.3605Z" fill="#23024D"/>
<path fill-rule="evenodd" clip-rule="evenodd" d="M88.9335 56.0294L88.9346 56.0294C88.9759 55.3911 88.9978 54.7475 88.9998 54.0992C89.0001 54.0329 89.0001 53.9667 88.9998 53.9004C88.9978 53.2522 88.9759 52.6088 88.9346 51.9706L88.9335 51.9706C88.8451 50.6233 88.6687 49.2805 88.4042 47.9511L88.4099 47.95C88.145 46.6109 87.7939 45.3028 87.3625 44.0317L87.3545 44.0344C86.9179 42.7484 86.3991 41.4976 85.8032 40.2891L85.8093 40.2861C85.2078 39.0687 84.5287 37.8965 83.7785 36.7759L83.7759 36.7777C83.0243 35.6529 82.1997 34.5781 81.3072 33.5604L81.3074 33.5601C81.048 33.2645 80.783 32.9739 80.5127 32.6884C80.1095 32.2625 79.694 31.8477 79.2664 31.4446C78.9954 31.189 78.7199 30.9383 78.4399 30.6926L78.4397 30.6928C77.7298 30.0703 76.9898 29.4787 76.2214 28.9204L75.6336 29.7294C76.6722 30.484 77.6571 31.3014 78.5836 32.1753C78.9992 32.5673 79.4036 32.9712 79.7962 33.3862C82.7854 36.5469 85.0672 40.3369 86.458 44.5056C87.4744 47.5521 87.9888 50.7226 87.9998 53.8958C87.9999 53.9305 88 53.9653 88 54C88 54.0346 87.9999 54.0692 87.9998 54.1037C87.9897 57.0415 87.548 59.9794 86.6738 62.8211C84.8346 68.7995 81.1728 74.0535 76.2005 77.8482C71.2282 81.643 65.1942 83.7887 58.9424 83.9851C52.6906 84.1816 46.5337 82.4191 41.3329 78.944C36.1322 75.469 32.1477 70.4553 29.9367 64.6042C27.7257 58.7531 27.3989 52.3573 29.002 46.3113C30.2916 41.4475 32.7783 37.0058 36.2106 33.379C36.5773 32.9917 36.9541 32.6141 37.3408 32.2468C37.8361 31.7765 38.3484 31.3221 38.8772 30.8846L38.2398 30.1141C38.0103 30.3039 37.7838 30.4969 37.5604 30.6928L37.5601 30.6926C36.8356 31.3285 36.1409 31.9977 35.4785 32.6977C35.2112 32.9802 34.9492 33.2677 34.6926 33.5601L34.6928 33.5604C33.7994 34.5791 32.9749 35.6541 32.2241 36.7777L32.2215 36.7759C31.4713 37.8965 30.7922 39.0687 30.1907 40.2861L30.1969 40.2891C29.6003 41.4989 29.0816 42.7498 28.6454 44.0344L28.6375 44.0317C28.2061 45.3028 27.855 46.6109 27.5901 47.95L27.5958 47.9511C27.3311 49.2819 27.1548 50.6246 27.0665 51.9706L27.0654 51.9706C27.0226 52.6322 27.0006 53.2996 27 53.9719C27 53.9813 27 53.9906 27 54C27 54.0018 27 54.0036 27 54.0054C27.0001 54.6854 27.0221 55.3603 27.0654 56.0294L27.0665 56.0294C27.155 57.3776 27.3316 58.7203 27.5959 60.0489L27.5901 60.05C27.855 61.3891 28.2061 62.6972 28.6375 63.9683L28.6455 63.9656C28.7583 64.2978 28.8769 64.6286 29.0013 64.9577C29.3563 65.8972 29.7555 66.8158 30.1969 67.7109L30.1907 67.7139C30.7922 68.9313 31.4713 70.1035 32.2215 71.2241L32.2242 71.2223C32.9762 72.3477 33.8009 73.4224 34.6929 74.4396L34.6926 74.4399C35.5851 75.4568 36.5432 76.4149 37.5601 77.3074L37.5604 77.3071C38.5736 78.1957 39.6477 79.0207 40.7774 79.7755C40.7775 79.7756 40.7776 79.7757 40.7778 79.7758L40.7759 79.7785C41.8965 80.5287 43.0687 81.2078 44.2861 81.8093L44.2891 81.8031C45.5046 82.4025 46.7558 82.9204 48.0345 83.3545L48.0317 83.3625C49.3028 83.7939 50.6109 84.145 51.95 84.4099L51.9511 84.4041C53.2748 84.6674 54.6175 84.8447 55.9706 84.9335L55.9706 84.9346C56.6415 84.978 57.3182 85 58 85C58.6818 85 59.3585 84.978 60.0294 84.9346L60.0294 84.9334C61.384 84.8446 62.7265 84.6672 64.0489 84.4041L64.05 84.4099C65.3891 84.145 66.6972 83.7939 67.9683 83.3625L67.9655 83.3545C69.2454 82.9199 70.4966 82.4018 71.7108 81.8031L71.7139 81.8093C72.9313 81.2078 74.1035 80.5287 75.2241 79.7785L75.2223 79.7758C75.7611 79.4158 76.2897 79.0381 76.8072 78.6432C77.3677 78.2154 77.912 77.7698 78.4396 77.3071L78.4399 77.3074C79.4568 76.4149 80.4149 75.4568 81.3074 74.4399L81.3071 74.4396C82.2 73.4214 83.0246 72.3466 83.7758 71.2223L83.7785 71.2241C84.5287 70.1035 85.2078 68.9313 85.8093 67.7139L85.8031 67.7109C86.3993 66.5019 86.9181 65.2511 87.3545 63.9656L87.3625 63.9683C87.7939 62.6972 88.145 61.3891 88.4099 60.05L88.4042 60.0489C88.6687 58.719 88.8452 57.3762 88.9335 56.0294ZM74.6678 29.0524L75.2241 28.2215C74.1035 27.4713 72.9313 26.7922 71.7139 26.1907L71.271 27.0872C72.4489 27.6693 73.5833 28.3264 74.6678 29.0524ZM67.6469 25.5845L67.9683 24.6375C66.6972 24.2061 65.3891 23.855 64.05 23.5901L63.856 24.571C65.1516 24.8274 66.4172 25.1671 67.6469 25.5845ZM59.9649 24.0633L60.0294 23.0654C59.3585 23.022 58.6818 23 58 23C57.3182 23 56.6415 23.022 55.9706 23.0654L56.0351 24.0633C56.6845 24.0213 57.3397 24 58 24C58.6603 24 59.3155 24.0213 59.9649 24.0633ZM52.144 24.571L51.95 23.5901C50.6109 23.855 49.3028 24.2061 48.0317 24.6375L48.3531 25.5845C49.5828 25.1671 50.8484 24.8274 52.144 24.571ZM44.729 27.0872L44.2861 26.1907C43.0687 26.7922 41.8965 27.4713 40.7759 28.2215L41.3322 29.0524C42.4167 28.3264 43.5511 27.6693 44.729 27.0872Z" fill="#23024D"/>
</svg>
