<svg width="1771" height="808" viewBox="0 0 1771 808" fill="none" xmlns="http://www.w3.org/2000/svg">
<mask id="mask0" mask-type="alpha" maskUnits="userSpaceOnUse" x="0" y="0" width="1771" height="808">
<rect width="1771" height="808" fill="#24034F"/>
</mask>
<g mask="url(#mask0)">
<g opacity="0.1">
<path opacity="0.1" d="M894.348 367.186C894.348 368.466 893.31 369.503 892.031 369.503C890.751 369.503 889.714 368.466 889.714 367.186C889.714 365.907 890.751 364.869 892.031 364.869C893.31 364.869 894.348 365.907 894.348 367.186Z" fill="white"/>
<path opacity="0.1" d="M571.743 337.076C571.743 338.355 570.706 339.393 569.426 339.393C568.146 339.393 567.109 338.355 567.109 337.076C567.109 335.796 568.146 334.759 569.426 334.759C570.706 334.759 571.743 335.796 571.743 337.076Z" fill="white"/>
<path d="M606.867 517.577C606.867 519.176 605.571 520.473 603.971 520.473C602.372 520.473 601.075 519.176 601.075 517.577C601.075 515.977 602.372 514.681 603.971 514.681C605.571 514.681 606.867 515.977 606.867 517.577Z" fill="white"/>
<path d="M366.788 321.724C366.788 323.324 365.491 324.621 363.891 324.621C362.292 324.621 360.995 323.324 360.995 321.724C360.995 320.125 362.292 318.828 363.891 318.828C365.491 318.828 366.788 320.125 366.788 321.724Z" fill="white"/>
<path fill-rule="evenodd" clip-rule="evenodd" d="M904.541 624.165C903.289 624.165 902.274 625.18 902.274 626.432C902.274 627.685 903.289 628.7 904.541 628.7C905.794 628.7 906.809 627.685 906.809 626.432C906.809 625.18 905.794 624.165 904.541 624.165ZM901.016 626.432C901.016 624.485 902.595 622.907 904.541 622.907C906.488 622.907 908.066 624.485 908.066 626.432C908.066 628.379 906.488 629.957 904.541 629.957C902.595 629.957 901.016 628.379 901.016 626.432Z" fill="white"/>
<path d="M524.788 101.888C524.788 103.168 523.75 104.205 522.471 104.205C521.191 104.205 520.154 103.168 520.154 101.888C520.154 100.609 521.191 99.5713 522.471 99.5713C523.75 99.5713 524.788 100.609 524.788 101.888Z" fill="white"/>
<path fill-rule="evenodd" clip-rule="evenodd" d="M1165.6 182.143C1166.83 182.143 1167.82 181.15 1167.82 179.925C1167.82 178.7 1166.83 177.707 1165.6 177.707C1164.38 177.707 1163.39 178.7 1163.39 179.925C1163.39 181.15 1164.38 182.143 1165.6 182.143ZM1165.6 183.4C1167.52 183.4 1169.08 181.844 1169.08 179.925C1169.08 178.005 1167.52 176.449 1165.6 176.449C1163.68 176.449 1162.13 178.005 1162.13 179.925C1162.13 181.844 1163.68 183.4 1165.6 183.4Z" fill="white"/>
<path fill-rule="evenodd" clip-rule="evenodd" d="M786.871 217.219C788.096 217.219 789.089 216.226 789.089 215.001C789.089 213.776 788.096 212.783 786.871 212.783C785.646 212.783 784.653 213.776 784.653 215.001C784.653 216.226 785.646 217.219 786.871 217.219ZM786.871 218.476C788.791 218.476 790.347 216.92 790.347 215.001C790.347 213.081 788.791 211.525 786.871 211.525C784.952 211.525 783.396 213.081 783.396 215.001C783.396 216.92 784.952 218.476 786.871 218.476Z" fill="white"/>
<path fill-rule="evenodd" clip-rule="evenodd" d="M591.259 301.131C592.484 301.131 593.477 300.138 593.477 298.913C593.477 297.688 592.484 296.695 591.259 296.695C590.034 296.695 589.041 297.688 589.041 298.913C589.041 300.138 590.034 301.131 591.259 301.131ZM591.259 302.389C593.179 302.389 594.735 300.832 594.735 298.913C594.735 296.994 593.179 295.438 591.259 295.438C589.34 295.438 587.784 296.994 587.784 298.913C587.784 300.832 589.34 302.389 591.259 302.389Z" fill="white"/>
<path fill-rule="evenodd" clip-rule="evenodd" d="M936.511 360.572C937.736 360.572 938.729 359.579 938.729 358.354C938.729 357.129 937.736 356.136 936.511 356.136C935.286 356.136 934.293 357.129 934.293 358.354C934.293 359.579 935.286 360.572 936.511 360.572ZM936.511 361.83C938.43 361.83 939.986 360.274 939.986 358.354C939.986 356.435 938.43 354.879 936.511 354.879C934.591 354.879 933.035 356.435 933.035 358.354C933.035 360.274 934.591 361.83 936.511 361.83Z" fill="white"/>
<path d="M1190.18 449.173C1190.18 451.092 1188.63 452.648 1186.71 452.648C1184.79 452.648 1183.23 451.092 1183.23 449.173C1183.23 447.253 1184.79 445.697 1186.71 445.697C1188.63 445.697 1190.18 447.253 1190.18 449.173Z" fill="white"/>
<path fill-rule="evenodd" clip-rule="evenodd" d="M1295.52 519.275C1296.75 519.275 1297.74 518.282 1297.74 517.057C1297.74 515.832 1296.75 514.839 1295.52 514.839C1294.3 514.839 1293.31 515.832 1293.31 517.057C1293.31 518.282 1294.3 519.275 1295.52 519.275ZM1295.52 520.532C1297.44 520.532 1299 518.976 1299 517.057C1299 515.137 1297.44 513.581 1295.52 513.581C1293.6 513.581 1292.05 515.137 1292.05 517.057C1292.05 518.976 1293.6 520.532 1295.52 520.532Z" fill="white"/>
</g>
<g opacity="0.1" filter="url(#filter0_f)">
<path opacity="0.1" d="M508.408 452.033C508.408 453.104 507.54 453.972 506.469 453.972C505.398 453.972 504.529 453.104 504.529 452.033C504.529 450.962 505.398 450.094 506.469 450.094C507.54 450.094 508.408 450.962 508.408 452.033Z" fill="white"/>
<path opacity="0.1" d="M238.392 426.832C238.392 427.903 237.524 428.771 236.453 428.771C235.382 428.771 234.514 427.903 234.514 426.832C234.514 425.761 235.382 424.893 236.453 424.893C237.524 424.893 238.392 425.761 238.392 426.832Z" fill="white"/>
<path opacity="0.1" d="M209.975 108.979C209.975 110.05 209.107 110.919 208.036 110.919C206.965 110.919 206.097 110.05 206.097 108.979C206.097 107.908 206.965 107.04 208.036 107.04C209.107 107.04 209.975 107.908 209.975 108.979Z" fill="white"/>
<path d="M267.791 577.908C267.791 579.246 266.706 580.332 265.367 580.332C264.028 580.332 262.943 579.246 262.943 577.908C262.943 576.569 264.028 575.483 265.367 575.483C266.706 575.483 267.791 576.569 267.791 577.908Z" fill="white"/>
<path d="M66.8483 413.983C66.8483 415.322 65.7629 416.407 64.4241 416.407C63.0853 416.407 62 415.322 62 413.983C62 412.644 63.0853 411.559 64.4241 411.559C65.7629 411.559 66.8483 412.644 66.8483 413.983Z" fill="white"/>
<path fill-rule="evenodd" clip-rule="evenodd" d="M516.94 667.121C515.891 667.121 515.042 667.971 515.042 669.019C515.042 670.067 515.891 670.917 516.94 670.917C517.988 670.917 518.838 670.067 518.838 669.019C518.838 667.971 517.988 667.121 516.94 667.121ZM513.989 669.019C513.989 667.389 515.31 666.068 516.94 666.068C518.569 666.068 519.89 667.389 519.89 669.019C519.89 670.648 518.569 671.969 516.94 671.969C515.31 671.969 513.989 670.648 513.989 669.019Z" fill="white"/>
<path d="M199.092 229.984C199.092 231.055 198.223 231.924 197.152 231.924C196.081 231.924 195.213 231.055 195.213 229.984C195.213 228.913 196.081 228.045 197.152 228.045C198.223 228.045 199.092 228.913 199.092 229.984Z" fill="white"/>
<path fill-rule="evenodd" clip-rule="evenodd" d="M735.445 297.155C736.47 297.155 737.302 296.324 737.302 295.299C737.302 294.273 736.47 293.442 735.445 293.442C734.42 293.442 733.589 294.273 733.589 295.299C733.589 296.324 734.42 297.155 735.445 297.155ZM735.445 298.208C737.052 298.208 738.354 296.905 738.354 295.299C738.354 293.692 737.052 292.39 735.445 292.39C733.839 292.39 732.536 293.692 732.536 295.299C732.536 296.905 733.839 298.208 735.445 298.208Z" fill="white"/>
<path fill-rule="evenodd" clip-rule="evenodd" d="M418.452 326.513C419.477 326.513 420.308 325.682 420.308 324.657C420.308 323.632 419.477 322.801 418.452 322.801C417.426 322.801 416.595 323.632 416.595 324.657C416.595 325.682 417.426 326.513 418.452 326.513ZM418.452 327.566C420.058 327.566 421.361 326.264 421.361 324.657C421.361 323.05 420.058 321.748 418.452 321.748C416.845 321.748 415.543 323.05 415.543 324.657C415.543 326.264 416.845 327.566 418.452 327.566Z" fill="white"/>
<path fill-rule="evenodd" clip-rule="evenodd" d="M254.727 396.746C255.753 396.746 256.584 395.915 256.584 394.889C256.584 393.864 255.753 393.033 254.727 393.033C253.702 393.033 252.871 393.864 252.871 394.889C252.871 395.915 253.702 396.746 254.727 396.746ZM254.727 397.798C256.334 397.798 257.636 396.496 257.636 394.889C257.636 393.283 256.334 391.98 254.727 391.98C253.121 391.98 251.818 393.283 251.818 394.889C251.818 396.496 253.121 397.798 254.727 397.798Z" fill="white"/>
<path fill-rule="evenodd" clip-rule="evenodd" d="M543.698 446.499C544.723 446.499 545.554 445.668 545.554 444.642C545.554 443.617 544.723 442.786 543.698 442.786C542.672 442.786 541.841 443.617 541.841 444.642C541.841 445.668 542.672 446.499 543.698 446.499ZM543.698 447.551C545.304 447.551 546.606 446.249 546.606 444.642C546.606 443.036 545.304 441.733 543.698 441.733C542.091 441.733 540.789 443.036 540.789 444.642C540.789 446.249 542.091 447.551 543.698 447.551Z" fill="white"/>
<path d="M756.016 520.655C756.016 522.262 754.714 523.564 753.107 523.564C751.501 523.564 750.198 522.262 750.198 520.655C750.198 519.048 751.501 517.746 753.107 517.746C754.714 517.746 756.016 519.048 756.016 520.655Z" fill="white"/>
<path fill-rule="evenodd" clip-rule="evenodd" d="M848.442 470.801C849.468 470.801 850.299 469.969 850.299 468.944C850.299 467.919 849.468 467.088 848.442 467.088C847.417 467.088 846.586 467.919 846.586 468.944C846.586 469.969 847.417 470.801 848.442 470.801ZM848.442 471.853C850.049 471.853 851.351 470.551 851.351 468.944C851.351 467.338 850.049 466.035 848.442 466.035C846.836 466.035 845.533 467.338 845.533 468.944C845.533 470.551 846.836 471.853 848.442 471.853Z" fill="white"/>
</g>
<g opacity="0.1" filter="url(#filter1_f)">
<path opacity="0.1" d="M1286.4 452.033C1286.4 453.104 1285.54 453.972 1284.47 453.972C1283.39 453.972 1282.53 453.104 1282.53 452.033C1282.53 450.962 1283.39 450.094 1284.47 450.094C1285.54 450.094 1286.4 450.962 1286.4 452.033Z" fill="white"/>
<path opacity="0.1" d="M1016.39 426.832C1016.39 427.903 1015.52 428.771 1014.45 428.771C1013.38 428.771 1012.51 427.903 1012.51 426.832C1012.51 425.761 1013.38 424.893 1014.45 424.893C1015.52 424.893 1016.39 425.761 1016.39 426.832Z" fill="white"/>
<path opacity="0.1" d="M987.972 108.979C987.972 110.05 987.104 110.919 986.033 110.919C984.962 110.919 984.094 110.05 984.094 108.979C984.094 107.908 984.962 107.04 986.033 107.04C987.104 107.04 987.972 107.908 987.972 108.979Z" fill="white"/>
<path d="M1045.79 577.908C1045.79 579.246 1044.7 580.332 1043.36 580.332C1042.03 580.332 1040.94 579.246 1040.94 577.908C1040.94 576.569 1042.03 575.483 1043.36 575.483C1044.7 575.483 1045.79 576.569 1045.79 577.908Z" fill="white"/>
<path d="M844.845 413.983C844.845 415.322 843.76 416.407 842.421 416.407C841.082 416.407 839.997 415.322 839.997 413.983C839.997 412.644 841.082 411.559 842.421 411.559C843.76 411.559 844.845 412.644 844.845 413.983Z" fill="white"/>
<path fill-rule="evenodd" clip-rule="evenodd" d="M1294.94 667.121C1293.89 667.121 1293.04 667.971 1293.04 669.019C1293.04 670.067 1293.89 670.917 1294.94 670.917C1295.98 670.917 1296.83 670.067 1296.83 669.019C1296.83 667.971 1295.98 667.121 1294.94 667.121ZM1291.99 669.019C1291.99 667.389 1293.31 666.068 1294.94 666.068C1296.57 666.068 1297.89 667.389 1297.89 669.019C1297.89 670.648 1296.57 671.969 1294.94 671.969C1293.31 671.969 1291.99 670.648 1291.99 669.019Z" fill="white"/>
<path d="M977.089 229.984C977.089 231.055 976.221 231.924 975.15 231.924C974.079 231.924 973.21 231.055 973.21 229.984C973.21 228.913 974.079 228.045 975.15 228.045C976.221 228.045 977.089 228.913 977.089 229.984Z" fill="white"/>
<path fill-rule="evenodd" clip-rule="evenodd" d="M1513.44 297.155C1514.47 297.155 1515.3 296.324 1515.3 295.299C1515.3 294.273 1514.47 293.442 1513.44 293.442C1512.42 293.442 1511.59 294.273 1511.59 295.299C1511.59 296.324 1512.42 297.155 1513.44 297.155ZM1513.44 298.208C1515.05 298.208 1516.35 296.905 1516.35 295.299C1516.35 293.692 1515.05 292.39 1513.44 292.39C1511.84 292.39 1510.53 293.692 1510.53 295.299C1510.53 296.905 1511.84 298.208 1513.44 298.208Z" fill="white"/>
<path fill-rule="evenodd" clip-rule="evenodd" d="M1196.45 326.513C1197.47 326.513 1198.31 325.682 1198.31 324.657C1198.31 323.632 1197.47 322.801 1196.45 322.801C1195.42 322.801 1194.59 323.632 1194.59 324.657C1194.59 325.682 1195.42 326.513 1196.45 326.513ZM1196.45 327.566C1198.06 327.566 1199.36 326.264 1199.36 324.657C1199.36 323.05 1198.06 321.748 1196.45 321.748C1194.84 321.748 1193.54 323.05 1193.54 324.657C1193.54 326.264 1194.84 327.566 1196.45 327.566Z" fill="white"/>
<path fill-rule="evenodd" clip-rule="evenodd" d="M1032.72 396.746C1033.75 396.746 1034.58 395.915 1034.58 394.889C1034.58 393.864 1033.75 393.033 1032.72 393.033C1031.7 393.033 1030.87 393.864 1030.87 394.889C1030.87 395.915 1031.7 396.746 1032.72 396.746ZM1032.72 397.798C1034.33 397.798 1035.63 396.496 1035.63 394.889C1035.63 393.283 1034.33 391.98 1032.72 391.98C1031.12 391.98 1029.82 393.283 1029.82 394.889C1029.82 396.496 1031.12 397.798 1032.72 397.798Z" fill="white"/>
<path fill-rule="evenodd" clip-rule="evenodd" d="M1321.69 446.499C1322.72 446.499 1323.55 445.668 1323.55 444.642C1323.55 443.617 1322.72 442.786 1321.69 442.786C1320.67 442.786 1319.84 443.617 1319.84 444.642C1319.84 445.668 1320.67 446.499 1321.69 446.499ZM1321.69 447.551C1323.3 447.551 1324.6 446.249 1324.6 444.642C1324.6 443.036 1323.3 441.733 1321.69 441.733C1320.09 441.733 1318.79 443.036 1318.79 444.642C1318.79 446.249 1320.09 447.551 1321.69 447.551Z" fill="white"/>
<path d="M1534.01 520.655C1534.01 522.262 1532.71 523.564 1531.1 523.564C1529.5 523.564 1528.2 522.262 1528.2 520.655C1528.2 519.048 1529.5 517.746 1531.1 517.746C1532.71 517.746 1534.01 519.048 1534.01 520.655Z" fill="white"/>
<path fill-rule="evenodd" clip-rule="evenodd" d="M1626.44 470.801C1627.46 470.801 1628.3 469.969 1628.3 468.944C1628.3 467.919 1627.46 467.088 1626.44 467.088C1625.41 467.088 1624.58 467.919 1624.58 468.944C1624.58 469.969 1625.41 470.801 1626.44 470.801ZM1626.44 471.853C1628.05 471.853 1629.35 470.551 1629.35 468.944C1629.35 467.338 1628.05 466.035 1626.44 466.035C1624.83 466.035 1623.53 467.338 1623.53 468.944C1623.53 470.551 1624.83 471.853 1626.44 471.853Z" fill="white"/>
</g>
<path d="M893.357 162.975L892.503 166.105L889.372 166.959L892.503 167.813L893.357 170.944L894.211 167.813L897.342 166.959L894.211 166.105L893.357 162.975Z" fill="white"/>
<path d="M478.428 176.857C478.428 175.365 479.638 174.155 481.131 174.155C482.623 174.155 483.833 175.365 483.833 176.857C483.833 178.35 482.623 179.559 481.131 179.559C479.638 179.559 478.428 178.35 478.428 176.857Z" fill="white"/>
<path d="M1300.99 360.016L1299.5 365.476L1294.04 366.965L1299.5 368.453L1300.99 373.913L1302.48 368.453L1307.94 366.965L1302.48 365.476L1300.99 360.016Z" fill="white"/>
<path d="M1297.49 370.641L1298.64 369.483L1298.47 369.309L1297.31 370.467L1297.49 370.641Z" fill="white"/>
<path d="M1297.29 370.834L1296.91 371.22L1296.73 371.046L1297.12 370.66L1297.29 370.834Z" fill="white"/>
<path d="M1296.33 371.799L1296.71 371.413L1296.54 371.239L1296.15 371.625L1296.33 371.799Z" fill="white"/>
<path d="M1303.62 364.503L1304.78 363.345L1304.61 363.172L1303.45 364.33L1303.62 364.503Z" fill="white"/>
<path d="M1305.36 362.766L1304.98 363.152L1304.8 362.979L1305.19 362.593L1305.36 362.766Z" fill="white"/>
<path d="M1305.55 362.573L1305.94 362.187L1305.77 362.014L1305.38 362.4L1305.55 362.573Z" fill="white"/>
<path d="M1297.2 363.345L1298.35 364.504L1298.53 364.33L1297.37 363.172L1297.2 363.345Z" fill="white"/>
<path d="M1297 363.152L1296.62 362.766L1296.79 362.593L1297.18 362.979L1297 363.152Z" fill="white"/>
<path d="M1296.04 362.187L1296.42 362.573L1296.6 362.4L1296.21 362.014L1296.04 362.187Z" fill="white"/>
<path d="M1303.33 369.483L1304.49 370.641L1304.67 370.467L1303.51 369.309L1303.33 369.483Z" fill="white"/>
<path d="M1305.07 371.22L1304.69 370.834L1304.86 370.66L1305.25 371.046L1305.07 371.22Z" fill="white"/>
<path d="M1305.27 371.413L1305.65 371.799L1305.82 371.626L1305.44 371.24L1305.27 371.413Z" fill="white"/>
<path d="M357.449 588.335L355.96 593.794L350.5 595.283L355.96 596.772L357.449 602.231L358.938 596.772L364.398 595.283L358.938 593.794L357.449 588.335Z" fill="white"/>
<path d="M355.104 597.801L353.945 598.96L353.772 598.786L354.93 597.628L355.104 597.801Z" fill="white"/>
<path d="M353.366 599.539L353.752 599.153L353.579 598.979L353.193 599.365L353.366 599.539Z" fill="white"/>
<path d="M353.173 599.732L352.787 600.118L352.614 599.944L353 599.558L353.173 599.732Z" fill="white"/>
<path d="M361.242 591.664L360.084 592.822L359.91 592.648L361.068 591.49L361.242 591.664Z" fill="white"/>
<path d="M361.435 591.471L361.821 591.085L361.647 590.911L361.261 591.297L361.435 591.471Z" fill="white"/>
<path d="M362.4 590.506L362.014 590.892L361.84 590.718L362.226 590.332L362.4 590.506Z" fill="white"/>
<path d="M354.814 592.822L353.656 591.664L353.83 591.49L354.988 592.648L354.814 592.822Z" fill="white"/>
<path d="M353.077 591.085L353.463 591.471L353.637 591.297L353.251 590.911L353.077 591.085Z" fill="white"/>
<path d="M352.884 590.892L352.498 590.506L352.672 590.332L353.058 590.718L352.884 590.892Z" fill="white"/>
<path d="M360.953 598.96L359.794 597.802L359.968 597.628L361.126 598.786L360.953 598.96Z" fill="white"/>
<path d="M361.146 599.153L361.532 599.539L361.705 599.365L361.319 598.979L361.146 599.153Z" fill="white"/>
<path d="M362.111 600.118L361.725 599.732L361.898 599.558L362.284 599.944L362.111 600.118Z" fill="white"/>
<path d="M1240.78 615.978C1239.29 615.978 1238.08 617.188 1238.08 618.68C1238.08 620.173 1239.29 621.382 1240.78 621.382C1242.28 621.382 1243.49 620.173 1243.49 618.68C1243.49 617.188 1242.28 615.978 1240.78 615.978Z" fill="white"/>
<path d="M1215.61 590.598C1216.23 590.598 1216.74 590.091 1216.74 589.466C1216.74 588.841 1216.23 588.335 1215.61 588.335C1214.98 588.335 1214.48 588.841 1214.48 589.466C1214.48 590.091 1214.98 590.598 1215.61 590.598Z" fill="white"/>
<path d="M974.924 565.074L973.435 570.534L967.975 572.023L973.435 573.512L974.924 578.971L976.413 573.512L981.873 572.023L976.413 570.534L974.924 565.074Z" fill="white"/>
<path d="M972.579 574.541L971.42 575.699L971.247 575.526L972.405 574.367L972.579 574.541Z" fill="white"/>
<path d="M970.841 576.278L971.227 575.892L971.054 575.719L970.668 576.105L970.841 576.278Z" fill="white"/>
<path d="M970.648 576.471L970.262 576.857L970.089 576.684L970.475 576.298L970.648 576.471Z" fill="white"/>
<path d="M978.717 568.404L977.559 569.562L977.385 569.388L978.543 568.23L978.717 568.404Z" fill="white"/>
<path d="M978.91 568.211L979.296 567.825L979.122 567.651L978.736 568.037L978.91 568.211Z" fill="white"/>
<path d="M979.875 567.246L979.489 567.632L979.315 567.458L979.701 567.072L979.875 567.246Z" fill="white"/>
<path d="M972.289 569.562L971.131 568.404L971.305 568.23L972.463 569.388L972.289 569.562Z" fill="white"/>
<path d="M970.552 567.825L970.938 568.211L971.112 568.037L970.726 567.651L970.552 567.825Z" fill="white"/>
<path d="M970.359 567.632L969.973 567.246L970.147 567.072L970.533 567.458L970.359 567.632Z" fill="white"/>
<path d="M978.427 575.699L977.269 574.541L977.443 574.368L978.601 575.526L978.427 575.699Z" fill="white"/>
<path d="M978.62 575.892L979.007 576.278L979.18 576.105L978.794 575.719L978.62 575.892Z" fill="white"/>
<path d="M979.586 576.857L979.2 576.471L979.373 576.298L979.759 576.684L979.586 576.857Z" fill="white"/>
<path d="M661.416 342.072L662.905 336.612L664.394 342.072L669.854 343.561L664.394 345.049L662.905 350.509L661.416 345.049L655.956 343.561L661.416 342.072Z" fill="white"/>
<path d="M659.402 347.237L660.56 346.079L660.386 345.905L659.228 347.063L659.402 347.237Z" fill="white"/>
<path d="M659.209 347.43L658.823 347.816L658.649 347.642L659.035 347.256L659.209 347.43Z" fill="white"/>
<path d="M658.244 348.395L658.63 348.009L658.456 347.835L658.07 348.221L658.244 348.395Z" fill="white"/>
<path d="M665.54 341.099L666.698 339.941L666.525 339.768L665.366 340.926L665.54 341.099Z" fill="white"/>
<path d="M667.277 339.362L666.891 339.748L666.718 339.575L667.104 339.189L667.277 339.362Z" fill="white"/>
<path d="M667.47 339.169L667.856 338.783L667.683 338.61L667.297 338.996L667.47 339.169Z" fill="white"/>
<path d="M659.112 339.942L660.271 341.1L660.444 340.926L659.286 339.768L659.112 339.942Z" fill="white"/>
<path d="M658.919 339.749L658.533 339.362L658.707 339.189L659.093 339.575L658.919 339.749Z" fill="white"/>
<path d="M657.954 338.783L658.34 339.169L658.514 338.996L658.128 338.61L657.954 338.783Z" fill="white"/>
<path d="M665.251 346.079L666.409 347.237L666.583 347.063L665.424 345.905L665.251 346.079Z" fill="white"/>
<path d="M666.988 347.816L666.602 347.43L666.776 347.256L667.162 347.642L666.988 347.816Z" fill="white"/>
<path d="M667.181 348.009L667.567 348.395L667.741 348.222L667.355 347.836L667.181 348.009Z" fill="white"/>
<path d="M892.049 168.441L891.385 169.105L891.211 168.931L891.876 168.267L892.049 168.441Z" fill="white"/>
<path d="M891.053 169.437L891.274 169.216L891.101 169.042L890.879 169.263L891.053 169.437Z" fill="white"/>
<path d="M890.943 169.548L890.721 169.769L890.548 169.595L890.769 169.374L890.943 169.548Z" fill="white"/>
<path d="M895.569 164.921L894.905 165.585L894.732 165.411L895.396 164.747L895.569 164.921Z" fill="white"/>
<path d="M895.68 164.81L895.902 164.589L895.728 164.415L895.507 164.637L895.68 164.81Z" fill="white"/>
<path d="M896.234 164.257L896.013 164.478L895.839 164.305L896.06 164.083L896.234 164.257Z" fill="white"/>
<path d="M891.809 165.585L891.145 164.921L891.319 164.747L891.983 165.411L891.809 165.585Z" fill="white"/>
<path d="M890.812 164.589L891.034 164.81L891.208 164.637L890.986 164.415L890.812 164.589Z" fill="white"/>
<path d="M890.702 164.478L890.481 164.257L890.654 164.083L890.876 164.305L890.702 164.478Z" fill="white"/>
<path d="M895.329 169.105L894.665 168.44L894.838 168.267L895.502 168.931L895.329 169.105Z" fill="white"/>
<path d="M895.439 169.215L895.661 169.437L895.835 169.263L895.613 169.041L895.439 169.215Z" fill="white"/>
<path d="M895.993 169.769L895.772 169.547L895.946 169.374L896.167 169.595L895.993 169.769Z" fill="white"/>
<path d="M424.891 294.339L425.744 291.208L426.598 294.339L429.729 295.193L426.598 296.047L425.744 299.177L424.891 296.047L421.759 295.193L424.891 294.339Z" fill="white"/>
<path d="M423.772 297.338L424.436 296.674L424.263 296.5L423.598 297.165L423.772 297.338Z" fill="white"/>
<path d="M423.662 297.449L423.44 297.671L423.266 297.497L423.488 297.275L423.662 297.449Z" fill="white"/>
<path d="M423.108 298.003L423.33 297.781L423.156 297.608L422.935 297.829L423.108 298.003Z" fill="white"/>
<path d="M427.292 293.819L427.956 293.155L427.783 292.981L427.119 293.645L427.292 293.819Z" fill="white"/>
<path d="M428.289 292.823L428.067 293.044L427.894 292.87L428.115 292.649L428.289 292.823Z" fill="white"/>
<path d="M428.4 292.712L428.621 292.491L428.447 292.317L428.226 292.538L428.4 292.712Z" fill="white"/>
<path d="M423.532 293.154L424.196 293.818L424.37 293.645L423.706 292.981L423.532 293.154Z" fill="white"/>
<path d="M423.421 293.044L423.199 292.823L423.373 292.649L423.595 292.87L423.421 293.044Z" fill="white"/>
<path d="M422.868 292.491L423.089 292.712L423.263 292.538L423.041 292.317L422.868 292.491Z" fill="white"/>
<path d="M427.052 296.674L427.716 297.338L427.889 297.164L427.225 296.5L427.052 296.674Z" fill="white"/>
<path d="M428.048 297.67L427.826 297.449L428 297.275L428.222 297.496L428.048 297.67Z" fill="white"/>
<path d="M428.159 297.781L428.38 298.002L428.554 297.829L428.333 297.607L428.159 297.781Z" fill="white"/>
<g opacity="0.5">
<path d="M794.063 748.506L795.39 743.639L800.258 742.311L795.39 740.984L794.063 736.117L792.735 740.984L787.867 742.311L792.735 743.639L794.063 748.506Z" fill="white"/>
<path d="M1439.12 726.924C1439.12 729.244 1437.24 731.125 1434.92 731.125C1432.6 731.125 1430.72 729.244 1430.72 726.924C1430.72 724.603 1432.6 722.723 1434.92 722.723C1437.24 722.723 1439.12 724.603 1439.12 726.924Z" fill="white"/>
<path d="M160.344 442.179L162.659 433.692L171.147 431.377L162.659 429.062L160.344 420.575L158.029 429.062L149.541 431.377L158.029 433.692L160.344 442.179Z" fill="white"/>
<path d="M165.791 425.661L163.99 427.461L164.261 427.731L166.061 425.931L165.791 425.661Z" fill="white"/>
<path d="M166.091 425.361L166.691 424.761L166.961 425.031L166.361 425.631L166.091 425.361Z" fill="white"/>
<path d="M167.591 423.861L166.991 424.461L167.261 424.731L167.862 424.131L167.591 423.861Z" fill="white"/>
<path d="M156.248 435.203L154.448 437.003L154.718 437.273L156.518 435.473L156.248 435.203Z" fill="white"/>
<path d="M153.547 437.903L154.148 437.303L154.418 437.573L153.818 438.173L153.547 437.903Z" fill="white"/>
<path d="M153.247 438.203L152.647 438.804L152.917 439.074L153.517 438.473L153.247 438.203Z" fill="white"/>
<path d="M166.241 437.003L164.44 435.203L164.17 435.473L165.971 437.273L166.241 437.003Z" fill="white"/>
<path d="M166.541 437.303L167.141 437.903L166.871 438.173L166.271 437.573L166.541 437.303Z" fill="white"/>
<path d="M168.041 438.803L167.441 438.203L167.171 438.473L167.771 439.073L168.041 438.803Z" fill="white"/>
<path d="M156.698 427.461L154.898 425.661L154.628 425.931L156.428 427.731L156.698 427.461Z" fill="white"/>
<path d="M153.997 424.761L154.598 425.361L154.327 425.631L153.727 425.031L153.997 424.761Z" fill="white"/>
<path d="M153.697 424.461L153.097 423.861L152.827 424.131L153.427 424.731L153.697 424.461Z" fill="white"/>
<path d="M1548.63 255.616L1550.95 247.128L1559.44 244.814L1550.95 242.499L1548.63 234.012L1546.32 242.499L1537.83 244.814L1546.32 247.128L1548.63 255.616Z" fill="white"/>
<path d="M1552.28 240.898L1554.08 239.098L1554.35 239.368L1552.55 241.168L1552.28 240.898Z" fill="white"/>
<path d="M1554.98 238.198L1554.38 238.798L1554.65 239.068L1555.25 238.468L1554.98 238.198Z" fill="white"/>
<path d="M1555.28 237.898L1555.88 237.298L1556.15 237.568L1555.55 238.168L1555.28 237.898Z" fill="white"/>
<path d="M1542.74 250.44L1544.54 248.64L1544.81 248.91L1543.01 250.71L1542.74 250.44Z" fill="white"/>
<path d="M1542.44 250.74L1541.84 251.34L1542.11 251.61L1542.71 251.01L1542.44 250.74Z" fill="white"/>
<path d="M1540.94 252.24L1541.54 251.64L1541.81 251.91L1541.21 252.51L1540.94 252.24Z" fill="white"/>
<path d="M1552.73 248.64L1554.53 250.44L1554.26 250.71L1552.46 248.91L1552.73 248.64Z" fill="white"/>
<path d="M1555.43 251.34L1554.83 250.74L1554.56 251.01L1555.16 251.61L1555.43 251.34Z" fill="white"/>
<path d="M1555.73 251.64L1556.33 252.24L1556.06 252.51L1555.46 251.91L1555.73 251.64Z" fill="white"/>
<path d="M1543.19 239.098L1544.99 240.898L1544.72 241.168L1542.92 239.368L1543.19 239.098Z" fill="white"/>
<path d="M1542.89 238.798L1542.29 238.198L1542.02 238.468L1542.62 239.068L1542.89 238.798Z" fill="white"/>
<path d="M1541.39 237.298L1541.99 237.898L1541.72 238.168L1541.12 237.568L1541.39 237.298Z" fill="white"/>
<path d="M253.941 44.2527C256.262 44.2527 258.143 42.3719 258.143 40.0518C258.143 37.7317 256.262 35.8508 253.941 35.8508C251.621 35.8508 249.74 37.7317 249.74 40.0518C249.74 42.3719 251.621 44.2527 253.941 44.2527Z" fill="white"/>
<path d="M293.08 83.7094C292.109 83.7094 291.321 84.4969 291.321 85.4686C291.321 86.4402 292.109 87.2278 293.08 87.2278C294.052 87.2278 294.84 86.4402 294.84 85.4686C294.84 84.4969 294.052 83.7094 293.08 83.7094Z" fill="white"/>
<path d="M667.256 123.389L669.571 114.902L678.059 112.587L669.571 110.272L667.256 101.785L664.941 110.272L656.453 112.587L664.941 114.902L667.256 123.389Z" fill="white"/>
<path d="M670.902 108.672L672.703 106.871L672.973 107.141L671.172 108.942L670.902 108.672Z" fill="white"/>
<path d="M673.603 105.971L673.003 106.571L673.273 106.841L673.873 106.241L673.603 105.971Z" fill="white"/>
<path d="M673.903 105.671L674.503 105.071L674.773 105.341L674.173 105.941L673.903 105.671Z" fill="white"/>
<path d="M661.359 118.213L663.16 116.413L663.43 116.683L661.63 118.483L661.359 118.213Z" fill="white"/>
<path d="M661.059 118.513L660.459 119.114L660.729 119.384L661.33 118.783L661.059 118.513Z" fill="white"/>
<path d="M659.559 120.014L660.159 119.414L660.429 119.684L659.829 120.284L659.559 120.014Z" fill="white"/>
<path d="M671.352 116.413L673.153 118.213L672.883 118.483L671.082 116.683L671.352 116.413Z" fill="white"/>
<path d="M674.053 119.113L673.453 118.513L673.183 118.783L673.783 119.383L674.053 119.113Z" fill="white"/>
<path d="M674.353 119.414L674.953 120.014L674.683 120.284L674.083 119.684L674.353 119.414Z" fill="white"/>
<path d="M661.809 106.871L663.61 108.672L663.34 108.942L661.539 107.141L661.809 106.871Z" fill="white"/>
<path d="M661.509 106.571L660.909 105.971L660.639 106.241L661.239 106.841L661.509 106.571Z" fill="white"/>
<path d="M660.009 105.071L660.609 105.671L660.339 105.941L659.739 105.341L660.009 105.071Z" fill="white"/>
<path d="M1069.61 324.063L1067.3 332.55L1064.98 324.063L1056.49 321.748L1064.98 319.434L1067.3 310.946L1069.61 319.434L1078.1 321.748L1069.61 324.063Z" fill="white"/>
<path d="M1072.74 316.033L1070.94 317.833L1071.21 318.103L1073.01 316.303L1072.74 316.033Z" fill="white"/>
<path d="M1073.04 315.733L1073.64 315.132L1073.91 315.402L1073.31 316.003L1073.04 315.733Z" fill="white"/>
<path d="M1074.54 314.232L1073.94 314.832L1074.21 315.102L1074.81 314.502L1074.54 314.232Z" fill="white"/>
<path d="M1063.2 325.574L1061.4 327.375L1061.67 327.645L1063.47 325.844L1063.2 325.574Z" fill="white"/>
<path d="M1060.5 328.275L1061.1 327.675L1061.37 327.945L1060.77 328.545L1060.5 328.275Z" fill="white"/>
<path d="M1060.2 328.575L1059.6 329.175L1059.87 329.445L1060.47 328.845L1060.2 328.575Z" fill="white"/>
<path d="M1073.19 327.375L1071.39 325.574L1071.12 325.844L1072.92 327.645L1073.19 327.375Z" fill="white"/>
<path d="M1073.49 327.675L1074.09 328.275L1073.82 328.545L1073.22 327.945L1073.49 327.675Z" fill="white"/>
<path d="M1074.99 329.175L1074.39 328.575L1074.12 328.845L1074.72 329.445L1074.99 329.175Z" fill="white"/>
<path d="M1063.65 317.833L1061.85 316.032L1061.58 316.303L1063.38 318.103L1063.65 317.833Z" fill="white"/>
<path d="M1060.95 315.132L1061.55 315.732L1061.28 316.002L1060.68 315.402L1060.95 315.132Z" fill="white"/>
<path d="M1060.65 314.832L1060.05 314.232L1059.78 314.502L1060.38 315.102L1060.65 314.832Z" fill="white"/>
<path d="M796.096 740.008L797.128 738.976L797.398 739.246L796.366 740.278L796.096 740.008Z" fill="white"/>
<path d="M797.644 738.459L797.3 738.803L797.57 739.073L797.914 738.729L797.644 738.459Z" fill="white"/>
<path d="M797.816 738.287L798.16 737.943L798.43 738.213L798.086 738.557L797.816 738.287Z" fill="white"/>
<path d="M790.623 745.48L791.655 744.447L791.925 744.717L790.893 745.75L790.623 745.48Z" fill="white"/>
<path d="M790.451 745.652L790.107 745.996L790.377 746.266L790.721 745.922L790.451 745.652Z" fill="white"/>
<path d="M789.59 746.512L789.934 746.168L790.204 746.438L789.86 746.782L789.59 746.512Z" fill="white"/>
<path d="M796.469 744.448L797.502 745.48L797.231 745.75L796.199 744.718L796.469 744.448Z" fill="white"/>
<path d="M798.018 745.996L797.674 745.652L797.404 745.922L797.748 746.266L798.018 745.996Z" fill="white"/>
<path d="M798.19 746.168L798.534 746.512L798.264 746.782L797.92 746.438L798.19 746.168Z" fill="white"/>
<path d="M790.997 738.976L792.03 740.009L791.76 740.279L790.727 739.246L790.997 738.976Z" fill="white"/>
<path d="M790.825 738.804L790.481 738.46L790.211 738.73L790.555 739.074L790.825 738.804Z" fill="white"/>
<path d="M789.964 737.944L790.308 738.288L790.038 738.558L789.694 738.214L789.964 737.944Z" fill="white"/>
<path d="M1522.35 544.283L1521.03 549.15L1519.7 544.283L1514.83 542.955L1519.7 541.628L1521.03 536.761L1522.35 541.628L1527.22 542.955L1522.35 544.283Z" fill="white"/>
<path d="M1524.09 539.62L1523.06 540.652L1523.33 540.922L1524.36 539.89L1524.09 539.62Z" fill="white"/>
<path d="M1524.27 539.447L1524.61 539.103L1524.88 539.373L1524.54 539.718L1524.27 539.447Z" fill="white"/>
<path d="M1525.13 538.587L1524.78 538.931L1525.05 539.201L1525.4 538.857L1525.13 538.587Z" fill="white"/>
<path d="M1518.62 545.091L1517.59 546.124L1517.86 546.394L1518.89 545.361L1518.62 545.091Z" fill="white"/>
<path d="M1517.07 546.64L1517.42 546.296L1517.69 546.566L1517.34 546.91L1517.07 546.64Z" fill="white"/>
<path d="M1516.9 546.812L1516.56 547.156L1516.83 547.426L1517.17 547.082L1516.9 546.812Z" fill="white"/>
<path d="M1524.47 546.124L1523.43 545.092L1523.16 545.362L1524.2 546.394L1524.47 546.124Z" fill="white"/>
<path d="M1524.64 546.296L1524.98 546.64L1524.71 546.91L1524.37 546.566L1524.64 546.296Z" fill="white"/>
<path d="M1525.5 547.156L1525.16 546.812L1524.89 547.082L1525.23 547.426L1525.5 547.156Z" fill="white"/>
<path d="M1519 540.653L1517.96 539.62L1517.69 539.89L1518.73 540.923L1519 540.653Z" fill="white"/>
<path d="M1517.45 539.104L1517.79 539.448L1517.52 539.718L1517.18 539.374L1517.45 539.104Z" fill="white"/>
<path d="M1517.27 538.932L1516.93 538.588L1516.66 538.858L1517 539.202L1517.27 538.932Z" fill="white"/>
</g>
<path opacity="0.1" d="M209.802 226.597L209.257 214.888L430.508 14.7412L222.192 227.142L209.802 226.597Z" fill="#E9E6ED"/>
<path fill-rule="evenodd" clip-rule="evenodd" d="M213.25 226.552L216.952 216.514L208.666 223.283L198.628 219.58L205.397 227.866L201.695 237.904L209.98 231.135L220.018 234.837L213.25 226.552ZM210.47 236.749L209.959 233.695L210.834 233.548L211.345 236.602L210.47 236.749ZM210.554 237.258L210.725 238.276L211.6 238.129L211.43 237.111L210.554 237.258ZM210.98 239.803L210.81 238.785L211.686 238.638L211.856 239.656L210.98 239.803ZM207.763 220.564L207.252 217.51L208.127 217.364L208.638 220.418L207.763 220.564ZM206.996 215.983L207.166 217.001L208.042 216.855L207.871 215.837L206.996 215.983ZM206.909 215.473L206.739 214.455L207.614 214.309L207.785 215.327L206.909 215.473ZM219.167 226.01L216.113 226.521L215.966 225.646L219.02 225.135L219.167 226.01ZM219.678 225.927L220.696 225.756L220.549 224.881L219.531 225.051L219.678 225.927ZM222.222 225.501L221.204 225.671L221.058 224.796L222.075 224.625L222.222 225.501ZM202.981 228.718L199.927 229.23L199.781 228.354L202.835 227.843L202.981 228.718ZM198.4 229.485L199.418 229.314L199.271 228.439L198.254 228.609L198.4 229.485ZM197.892 229.57L196.874 229.741L196.727 228.865L197.745 228.695L197.892 229.57Z" fill="white"/>
<path opacity="0.1" d="M377.788 495.622L377.636 492.364L618.942 266.354L381.235 495.773L377.788 495.622Z" fill="#E9E6ED"/>
<path fill-rule="evenodd" clip-rule="evenodd" d="M378.438 495.008L377.655 492.137L376.871 495.008L374 495.791L376.871 496.574L377.655 499.446L378.438 496.574L381.309 495.791L378.438 495.008ZM379.455 497.767L378.846 497.158L379.021 496.983L379.63 497.592L379.455 497.767ZM379.556 497.869L379.76 498.072L379.935 497.897L379.731 497.694L379.556 497.869ZM380.065 498.377L379.861 498.173L380.036 497.998L380.24 498.202L380.065 498.377ZM376.228 494.538L375.619 493.929L375.793 493.755L376.403 494.364L376.228 494.538ZM375.313 493.625L375.517 493.828L375.692 493.653L375.488 493.45L375.313 493.625ZM375.211 493.524L375.008 493.32L375.183 493.145L375.387 493.349L375.211 493.524ZM379.69 493.93L379.081 494.539L378.907 494.364L379.516 493.755L379.69 493.93ZM379.793 493.828L379.997 493.625L379.822 493.45L379.618 493.653L379.793 493.828ZM380.301 493.321L380.097 493.524L379.922 493.349L380.126 493.146L380.301 493.321ZM376.462 497.158L375.853 497.767L375.679 497.592L376.288 496.983L376.462 497.158ZM375.548 498.072L375.752 497.869L375.577 497.694L375.373 497.897L375.548 498.072ZM375.448 498.173L375.244 498.377L375.069 498.202L375.273 497.998L375.448 498.173Z" fill="white"/>
<path opacity="0.1" d="M1263.54 465.412L1263 453.703L1863.71 -124L1275.93 465.957L1263.54 465.412Z" fill="#E9E6ED"/>
<path fill-rule="evenodd" clip-rule="evenodd" d="M1266.87 457.512L1256.18 457.747L1265.51 462.975L1265.75 473.671L1270.97 464.337L1281.67 464.103L1272.34 458.874L1272.1 448.178L1266.87 457.512ZM1277.38 456.362L1274.73 457.956L1274.27 457.195L1276.92 455.601L1277.38 456.362ZM1277.82 456.097L1278.71 455.565L1278.25 454.804L1277.37 455.336L1277.82 456.097ZM1280.03 454.767L1279.15 455.299L1278.69 454.538L1279.58 454.006L1280.03 454.767ZM1263.31 464.812L1260.66 466.407L1260.2 465.646L1262.86 464.051L1263.31 464.812ZM1259.33 467.205L1260.22 466.673L1259.76 465.912L1258.88 466.444L1259.33 467.205ZM1258.89 467.472L1258.01 468.004L1257.55 467.243L1258.43 466.711L1258.89 467.472ZM1264.2 452.206L1265.8 454.86L1265.04 455.317L1263.44 452.663L1264.2 452.206ZM1263.94 451.761L1263.4 450.876L1262.64 451.333L1263.18 452.218L1263.94 451.761ZM1262.61 449.55L1263.14 450.434L1262.38 450.892L1261.85 450.007L1262.61 449.55ZM1272.65 466.272L1274.25 468.926L1273.49 469.384L1271.89 466.73L1272.65 466.272ZM1275.05 470.254L1274.51 469.369L1273.75 469.827L1274.28 470.711L1275.05 470.254ZM1275.31 470.696L1275.84 471.58L1275.08 472.038L1274.55 471.153L1275.31 470.696Z" fill="white"/>
<path opacity="0.1" d="M1005.08 132.911L1004.79 126.804L1098.2 44.4229L1011.53 133.196L1005.08 132.911Z" fill="#E9E6ED"/>
<path fill-rule="evenodd" clip-rule="evenodd" d="M1005.91 131.467L1003.58 126.403L1003.02 131.951L997.953 134.286L1003.5 134.845L1005.84 139.908L1006.39 134.361L1011.46 132.026L1005.91 131.467ZM1008.64 136.249L1007.33 135.312L1007.6 134.935L1008.91 135.872L1008.64 136.249ZM1008.86 136.405L1009.3 136.718L1009.57 136.341L1009.13 136.029L1008.86 136.405ZM1009.96 137.186L1009.52 136.874L1009.79 136.497L1010.23 136.81L1009.96 137.186ZM1001.68 131.282L1000.37 130.345L1000.64 129.968L1001.95 130.906L1001.68 131.282ZM999.711 129.877L1000.15 130.189L1000.42 129.812L999.979 129.5L999.711 129.877ZM999.491 129.721L999.053 129.408L999.322 129.032L999.76 129.344L999.491 129.721ZM1007.89 129.087L1006.95 130.4L1006.58 130.132L1007.51 128.818L1007.89 129.087ZM1008.05 128.867L1008.36 128.429L1007.98 128.161L1007.67 128.599L1008.05 128.867ZM1008.83 127.773L1008.52 128.211L1008.14 127.942L1008.45 127.504L1008.83 127.773ZM1002.92 136.049L1001.99 137.363L1001.61 137.094L1002.55 135.781L1002.92 136.049ZM1001.52 138.02L1001.83 137.582L1001.45 137.314L1001.14 137.751L1001.52 138.02ZM1001.36 138.239L1001.05 138.677L1000.67 138.408L1000.99 137.97L1001.36 138.239Z" fill="white"/>
<path opacity="0.1" d="M805 -21L480 286" stroke="url(#paint0_linear)" stroke-width="2"/>
<path opacity="0.1" d="M787 339L462 645" stroke="url(#paint1_linear)" stroke-width="2"/>
<path opacity="0.1" d="M1338 -91L1121 114" stroke="url(#paint2_linear)" stroke-width="2"/>
</g>
<defs>
<filter id="filter0_f" x="42" y="87.04" width="829.351" height="604.929" filterUnits="userSpaceOnUse" color-interpolation-filters="sRGB">
<feFlood flood-opacity="0" result="BackgroundImageFix"/>
<feBlend mode="normal" in="SourceGraphic" in2="BackgroundImageFix" result="shape"/>
<feGaussianBlur stdDeviation="10" result="effect1_foregroundBlur"/>
</filter>
<filter id="filter1_f" x="819.997" y="87.04" width="829.351" height="604.929" filterUnits="userSpaceOnUse" color-interpolation-filters="sRGB">
<feFlood flood-opacity="0" result="BackgroundImageFix"/>
<feBlend mode="normal" in="SourceGraphic" in2="BackgroundImageFix" result="shape"/>
<feGaussianBlur stdDeviation="10" result="effect1_foregroundBlur"/>
</filter>
<linearGradient id="paint0_linear" x1="497.564" y1="287.503" x2="770.857" y2="3.0356" gradientUnits="userSpaceOnUse">
<stop stop-color="#F6F5F8"/>
<stop offset="1" stop-color="#23024D"/>
</linearGradient>
<linearGradient id="paint1_linear" x1="479.564" y1="646.498" x2="751.929" y2="362.069" gradientUnits="userSpaceOnUse">
<stop stop-color="#F6F5F8"/>
<stop offset="1" stop-color="#23024D"/>
</linearGradient>
<linearGradient id="paint2_linear" x1="1132.73" y1="115.004" x2="1315.22" y2="-74.9337" gradientUnits="userSpaceOnUse">
<stop stop-color="#F6F5F8"/>
<stop offset="1" stop-color="#23024D"/>
</linearGradient>
</defs>
</svg>
