<svg width="92" height="92" viewBox="0 0 92 92" fill="none" xmlns="http://www.w3.org/2000/svg">
<path d="M34.9739 56.2943L34.0476 69.975C35.373 69.975 35.947 69.3772 36.6353 68.6594L42.8491 62.4241L55.7248 72.3246C58.0862 73.7063 59.7499 72.9787 60.3869 70.0436L68.8384 28.4624L68.8408 28.46C69.5898 24.7948 67.5784 23.3615 65.2777 24.2607L15.5998 44.2305C12.2094 45.6123 12.2607 47.5968 15.0235 48.496L27.7241 52.6438L57.2251 33.2619C58.6135 32.2967 59.8759 32.8307 58.8375 33.796L34.9739 56.2943Z" fill="#872AB0"/>
<path fill-rule="evenodd" clip-rule="evenodd" d="M46.2274 90.0684C70.9345 90.0684 90.9551 70.237 90.9551 45.784H91.9551C91.9551 70.7985 71.4774 91.0684 46.2274 91.0684C20.9773 91.0684 0.499634 70.7985 0.499634 45.784C0.499634 20.7696 20.9773 0.499725 46.2274 0.499725V1.49973C21.5203 1.49973 1.49963 21.3311 1.49963 45.784C1.49963 70.237 21.5203 90.0684 46.2274 90.0684Z" fill="#23024D"/>
<path fill-rule="evenodd" clip-rule="evenodd" d="M91.9098 44.1755C91.9399 44.8561 91.9551 45.5406 91.9551 46.2285H90.9551C90.9551 45.5553 90.9402 44.8856 90.9108 44.2197L91.9098 44.1755ZM91.0344 37.054C91.3054 38.3848 91.5187 39.7366 91.6714 41.1066L90.6775 41.2174C90.5282 39.8773 90.3196 38.5551 90.0545 37.2536L91.0344 37.054ZM89.0505 30.1561C89.5292 31.4309 89.9526 32.7327 90.3178 34.0587L89.3537 34.3242C88.9965 33.0275 88.5825 31.7543 88.1143 30.5076L89.0505 30.1561ZM86.0053 23.6574C86.6798 24.8435 87.3028 26.0628 87.8712 27.3121L86.961 27.7263C86.405 26.5044 85.7957 25.3119 85.136 24.1517L86.0053 23.6574ZM81.9801 17.7167C82.8328 18.7846 83.6387 19.8916 84.3947 21.0346L83.5606 21.5862C82.8212 20.4682 82.0328 19.3854 81.1987 18.3407L81.9801 17.7167ZM77.0786 12.4757C78.0884 13.3992 79.0566 14.3675 79.9801 15.3773L79.2422 16.0521C78.3388 15.0643 77.3916 14.1171 76.4037 13.2137L77.0786 12.4757ZM71.4213 8.06119C72.5643 8.81715 73.6712 9.62305 74.7392 10.4758L74.1152 11.2572C73.0705 10.423 71.9876 9.63471 70.8696 8.89526L71.4213 8.06119ZM65.1437 4.5847C66.3931 5.15311 67.6124 5.77608 68.7985 6.45055L68.3042 7.31984C67.144 6.66013 65.9515 6.05084 64.7296 5.49492L65.1437 4.5847ZM58.3972 2.1381C59.7231 2.50329 61.025 2.92668 62.2998 3.40536L61.9483 4.34154C60.7015 3.87341 59.4284 3.45934 58.1316 3.10221L58.3972 2.1381ZM51.3493 0.784481C52.7193 0.937195 54.071 1.15044 55.4018 1.4215L55.2023 2.40138C53.9007 2.13629 52.5786 1.92771 51.2385 1.77833L51.3493 0.784481ZM46.2274 0.500793C46.9153 0.500793 47.5997 0.515991 48.2803 0.546066L48.2362 1.54509C47.5703 1.51566 46.9006 1.50079 46.2274 1.50079V0.500793Z" fill="#23024D"/>
<path fill-rule="evenodd" clip-rule="evenodd" d="M28.7723 36.5C13.7056 36.5 1.5 48.5929 1.5 63.5H0.5C0.5 48.0314 13.1626 35.5 28.7723 35.5C44.382 35.5 57.0446 48.0314 57.0446 63.5C57.0446 78.9686 44.382 91.5 28.7723 91.5V90.5C43.839 90.5 56.0446 78.4071 56.0446 63.5C56.0446 48.5929 43.839 36.5 28.7723 36.5Z" fill="#23024D"/>
<path fill-rule="evenodd" clip-rule="evenodd" d="M0.577898 65.341C0.526268 64.6428 0.5 63.9377 0.5 63.2266H1.5C1.5 63.9131 1.52536 64.5936 1.57517 65.2672L0.577898 65.341ZM2.07963 72.5675C1.61806 71.2484 1.25149 69.8847 0.988139 68.4846L1.9709 68.2998C2.2249 69.65 2.5784 70.9651 3.02351 72.2372L2.07963 72.5675ZM5.41042 79.1544C4.61791 77.9942 3.90952 76.7719 3.29407 75.4962L4.19473 75.0617C4.78832 76.292 5.47162 77.4711 6.23617 78.5904L5.41042 79.1544ZM10.3303 84.6565C9.26171 83.7361 8.26276 82.7371 7.34237 81.6686L8.10005 81.0159C8.98808 82.0469 9.95191 83.0108 10.9829 83.8988L10.3303 84.6565ZM16.5027 88.7048C15.227 88.0893 14.0046 87.3809 12.8444 86.5884L13.4085 85.7627C14.5277 86.5272 15.7068 87.2105 16.9372 87.8041L16.5027 88.7048ZM23.5142 91.0107C22.1141 90.7473 20.7505 90.3808 19.4314 89.9192L19.7617 88.9753C21.0337 89.4204 22.3488 89.7739 23.6991 90.0279L23.5142 91.0107ZM28.7723 91.4988C28.0611 91.4988 27.356 91.4726 26.6578 91.4209L26.7316 90.4237C27.4052 90.4735 28.0857 90.4988 28.7723 90.4988V91.4988Z" fill="#23024D"/>
<path fill-rule="evenodd" clip-rule="evenodd" d="M78.2123 11.7422L37.9447 89.7288L37.0562 89.27L75.7886 14.2565L2.74598 55.4349L2.25488 54.5638L78.2123 11.7422Z" fill="#23024D"/>
</svg>
