<svg width="669" height="147" viewBox="0 0 669 147" fill="none" xmlns="http://www.w3.org/2000/svg">
<path d="M104.704 135L103.91 137.91L101 138.704L103.91 139.498L104.704 142.408L105.497 139.498L108.408 138.704L105.497 137.91L104.704 135Z" fill="white"/>
<path d="M103.454 140.047L102.836 140.664L102.744 140.571L103.361 139.954L103.454 140.047Z" fill="white"/>
<path d="M102.528 140.973L102.733 140.767L102.641 140.674L102.435 140.88L102.528 140.973Z" fill="white"/>
<path d="M102.425 141.075L102.219 141.281L102.126 141.189L102.332 140.983L102.425 141.075Z" fill="white"/>
<path d="M106.725 136.775L106.108 137.392L106.016 137.299L106.633 136.682L106.725 136.775Z" fill="white"/>
<path d="M106.828 136.672L107.034 136.466L106.942 136.373L106.736 136.579L106.828 136.672Z" fill="white"/>
<path d="M107.343 136.157L107.137 136.363L107.044 136.271L107.25 136.065L107.343 136.157Z" fill="white"/>
<path d="M103.299 137.392L102.682 136.775L102.775 136.682L103.392 137.299L103.299 137.392Z" fill="white"/>
<path d="M102.373 136.466L102.579 136.672L102.672 136.579L102.466 136.373L102.373 136.466Z" fill="white"/>
<path d="M102.271 136.363L102.065 136.157L102.157 136.065L102.363 136.271L102.271 136.363Z" fill="white"/>
<path d="M106.571 140.664L105.954 140.047L106.047 139.954L106.664 140.571L106.571 140.664Z" fill="white"/>
<path d="M106.674 140.767L106.88 140.973L106.973 140.88L106.767 140.674L106.674 140.767Z" fill="white"/>
<path d="M107.189 141.281L106.983 141.075L107.075 140.983L107.281 141.189L107.189 141.281Z" fill="white"/>
<path d="M584.703 135L585.497 137.91L588.407 138.704L585.497 139.498L584.703 142.408L583.91 139.498L581 138.704L583.91 137.91L584.703 135Z" fill="white"/>
<path d="M585.954 140.047L586.571 140.664L586.664 140.571L586.046 139.954L585.954 140.047Z" fill="white"/>
<path d="M586.88 140.973L586.674 140.767L586.766 140.674L586.972 140.88L586.88 140.973Z" fill="white"/>
<path d="M586.982 141.075L587.188 141.281L587.281 141.189L587.075 140.983L586.982 141.075Z" fill="white"/>
<path d="M582.682 136.775L583.299 137.392L583.392 137.299L582.774 136.682L582.682 136.775Z" fill="white"/>
<path d="M582.579 136.672L582.373 136.466L582.466 136.373L582.671 136.579L582.579 136.672Z" fill="white"/>
<path d="M582.064 136.157L582.27 136.363L582.363 136.271L582.157 136.065L582.064 136.157Z" fill="white"/>
<path d="M586.108 137.392L586.725 136.775L586.633 136.682L586.015 137.299L586.108 137.392Z" fill="white"/>
<path d="M587.034 136.466L586.828 136.672L586.735 136.579L586.941 136.373L587.034 136.466Z" fill="white"/>
<path d="M587.137 136.363L587.342 136.157L587.25 136.065L587.044 136.271L587.137 136.363Z" fill="white"/>
<path d="M582.836 140.664L583.453 140.047L583.361 139.954L582.743 140.571L582.836 140.664Z" fill="white"/>
<path d="M582.733 140.767L582.527 140.973L582.435 140.88L582.641 140.674L582.733 140.767Z" fill="white"/>
<path d="M582.219 141.281L582.424 141.075L582.332 140.983L582.126 141.189L582.219 141.281Z" fill="white"/>
<g opacity="0.5">
<path d="M523.703 89L522.91 91.9103L519.999 92.704L522.91 93.4977L523.703 96.4079L524.497 93.4977L527.407 92.704L524.497 91.9103L523.703 89Z" fill="white"/>
<path d="M522.453 94.0465L521.836 94.6639L521.743 94.5713L522.361 93.9539L522.453 94.0465Z" fill="white"/>
<path d="M521.527 94.9725L521.733 94.7668L521.64 94.6742L521.435 94.8799L521.527 94.9725Z" fill="white"/>
<path d="M521.424 95.0754L521.218 95.2812L521.126 95.1886L521.332 94.9828L521.424 95.0754Z" fill="white"/>
<path d="M525.725 90.7747L525.108 91.392L525.015 91.2994L525.632 90.6821L525.725 90.7747Z" fill="white"/>
<path d="M525.828 90.6718L526.034 90.466L525.941 90.3734L525.735 90.5792L525.828 90.6718Z" fill="white"/>
<path d="M526.342 90.1574L526.137 90.3632L526.044 90.2706L526.25 90.0648L526.342 90.1574Z" fill="white"/>
<path d="M522.299 91.3921L521.682 90.7748L521.774 90.6822L522.391 91.2995L522.299 91.3921Z" fill="white"/>
<path d="M521.373 90.4661L521.579 90.6719L521.671 90.5793L521.465 90.3735L521.373 90.4661Z" fill="white"/>
<path d="M521.27 90.3632L521.064 90.1574L521.157 90.0648L521.363 90.2706L521.27 90.3632Z" fill="white"/>
<path d="M525.571 94.6639L524.953 94.0466L525.046 93.954L525.663 94.5713L525.571 94.6639Z" fill="white"/>
<path d="M525.674 94.7668L525.879 94.9726L525.972 94.88L525.766 94.6742L525.674 94.7668Z" fill="white"/>
<path d="M526.188 95.2813L525.982 95.0755L526.075 94.9829L526.281 95.1887L526.188 95.2813Z" fill="white"/>
</g>
<g opacity="0.5">
<path d="M165.704 89L166.498 91.9103L169.408 92.704L166.498 93.4977L165.704 96.4079L164.91 93.4977L162 92.704L164.91 91.9103L165.704 89Z" fill="white"/>
<path d="M166.954 94.0465L167.571 94.6639L167.664 94.5713L167.047 93.9539L166.954 94.0465Z" fill="white"/>
<path d="M167.88 94.9725L167.674 94.7668L167.767 94.6742L167.973 94.8799L167.88 94.9725Z" fill="white"/>
<path d="M167.983 95.0754L168.189 95.2812L168.281 95.1886L168.076 94.9828L167.983 95.0754Z" fill="white"/>
<path d="M163.682 90.7747L164.3 91.392L164.392 91.2994L163.775 90.6821L163.682 90.7747Z" fill="white"/>
<path d="M163.579 90.6718L163.374 90.466L163.466 90.3734L163.672 90.5792L163.579 90.6718Z" fill="white"/>
<path d="M163.065 90.1574L163.271 90.3632L163.363 90.2706L163.158 90.0648L163.065 90.1574Z" fill="white"/>
<path d="M167.108 91.3921L167.726 90.7748L167.633 90.6822L167.016 91.2995L167.108 91.3921Z" fill="white"/>
<path d="M168.034 90.4661L167.829 90.6719L167.736 90.5793L167.942 90.3735L168.034 90.4661Z" fill="white"/>
<path d="M168.137 90.3632L168.343 90.1574L168.25 90.0648L168.045 90.2706L168.137 90.3632Z" fill="white"/>
<path d="M163.837 94.6639L164.454 94.0466L164.361 93.954L163.744 94.5713L163.837 94.6639Z" fill="white"/>
<path d="M163.734 94.7668L163.528 94.9726L163.435 94.88L163.641 94.6742L163.734 94.7668Z" fill="white"/>
<path d="M163.219 95.2813L163.425 95.0755L163.332 94.9829L163.127 95.1887L163.219 95.2813Z" fill="white"/>
</g>
<path d="M567.704 63L568.498 65.9103L571.408 66.704L568.498 67.4977L567.704 70.4079L566.911 67.4977L564 66.704L566.911 65.9103L567.704 63Z" fill="white"/>
<path d="M569.572 68.6639L568.955 68.0465L569.047 67.9539L569.665 68.5713L569.572 68.6639Z" fill="white"/>
<path d="M569.675 68.7668L569.881 68.9725L569.973 68.8799L569.767 68.6742L569.675 68.7668Z" fill="white"/>
<path d="M570.189 69.2812L569.983 69.0754L570.076 68.9828L570.282 69.1886L570.189 69.2812Z" fill="white"/>
<path d="M566.3 65.392L565.683 64.7747L565.775 64.6821L566.393 65.2994L566.3 65.392Z" fill="white"/>
<path d="M565.374 64.466L565.58 64.6718L565.672 64.5792L565.467 64.3734L565.374 64.466Z" fill="white"/>
<path d="M565.271 64.3631L565.065 64.1574L565.158 64.0648L565.364 64.2706L565.271 64.3631Z" fill="white"/>
<path d="M569.726 64.7747L569.109 65.3921L569.016 65.2995L569.634 64.6822L569.726 64.7747Z" fill="white"/>
<path d="M569.829 64.6719L570.035 64.4661L569.942 64.3735L569.736 64.5793L569.829 64.6719Z" fill="white"/>
<path d="M570.343 64.1574L570.138 64.3632L570.045 64.2706L570.251 64.0648L570.343 64.1574Z" fill="white"/>
<path d="M566.454 68.0466L565.837 68.6639L565.744 68.5713L566.362 67.954L566.454 68.0466Z" fill="white"/>
<path d="M565.528 68.9726L565.734 68.7668L565.641 68.6742L565.436 68.88L565.528 68.9726Z" fill="white"/>
<path d="M565.425 69.0755L565.22 69.2812L565.127 69.1887L565.333 68.9829L565.425 69.0755Z" fill="white"/>
<path opacity="0.2" d="M180.999 12.4405C180.999 11.6449 181.644 11 182.44 11C183.235 11 183.88 11.6449 183.88 12.4405C183.88 13.2361 183.235 13.881 182.44 13.881C181.644 13.881 180.999 13.2361 180.999 12.4405Z" fill="white"/>
<path opacity="0.2" d="M508.408 12.4405C508.408 11.6449 507.763 11 506.967 11C506.172 11 505.527 11.6449 505.527 12.4405C505.527 13.2361 506.172 13.881 506.967 13.881C507.763 13.881 508.408 13.2361 508.408 12.4405Z" fill="white"/>
<path d="M2.12354 63L1.66833 64.6689L-0.000518799 65.1241L1.66833 65.5792L2.12354 67.2482L2.57864 65.5792L4.24756 65.1241L2.57864 64.6689L2.12354 63Z" fill="white"/>
<path d="M1.42651 65.9138L1.07251 66.2678L0.979919 66.1752L1.33392 65.8212L1.42651 65.9138Z" fill="white"/>
<path d="M0.895508 66.4449L1.01349 66.3269L0.920898 66.2343L0.802917 66.3523L0.895508 66.4449Z" fill="white"/>
<path d="M0.836609 66.5039L0.718628 66.6219L0.626038 66.5293L0.744019 66.4113L0.836609 66.5039Z" fill="white"/>
<path d="M3.30283 64.0376L2.94882 64.3916L2.85623 64.299L3.21024 63.945L3.30283 64.0376Z" fill="white"/>
<path d="M3.36185 63.9787L3.47986 63.8606L3.38724 63.7681L3.26926 63.886L3.36185 63.9787Z" fill="white"/>
<path d="M3.65707 63.6836L3.53903 63.8016L3.44644 63.709L3.56445 63.591L3.65707 63.6836Z" fill="white"/>
<path d="M1.29846 64.3914L0.944397 64.0374L1.03705 63.9448L1.39105 64.2989L1.29846 64.3914Z" fill="white"/>
<path d="M0.767212 63.8606L0.885254 63.9786L0.977844 63.886L0.859802 63.768L0.767212 63.8606Z" fill="white"/>
<path d="M0.708374 63.8016L0.590332 63.6836L0.682922 63.591L0.800964 63.709L0.708374 63.8016Z" fill="white"/>
<path d="M3.17447 66.2677L2.82047 65.9137L2.91306 65.8211L3.26706 66.1751L3.17447 66.2677Z" fill="white"/>
<path d="M3.23349 66.3267L3.3515 66.4447L3.44412 66.3521L3.32608 66.2341L3.23349 66.3267Z" fill="white"/>
<path d="M3.52869 66.6217L3.41068 66.5037L3.50327 66.4111L3.62128 66.5291L3.52869 66.6217Z" fill="white"/>
<path d="M228.124 45L228.579 46.6689L230.248 47.1241L228.579 47.5792L228.124 49.2482L227.669 47.5792L226 47.1241L227.669 46.6689L228.124 45Z" fill="white"/>
<path d="M228.821 47.9138L229.175 48.2678L229.268 48.1752L228.914 47.8212L228.821 47.9138Z" fill="white"/>
<path d="M229.352 48.4449L229.234 48.3269L229.327 48.2343L229.445 48.3523L229.352 48.4449Z" fill="white"/>
<path d="M229.411 48.5039L229.529 48.6219L229.622 48.5293L229.504 48.4113L229.411 48.5039Z" fill="white"/>
<path d="M226.945 46.0376L227.299 46.3916L227.391 46.299L227.037 45.945L226.945 46.0376Z" fill="white"/>
<path d="M226.886 45.9787L226.768 45.8606L226.86 45.7681L226.978 45.886L226.886 45.9787Z" fill="white"/>
<path d="M226.59 45.6836L226.709 45.8016L226.801 45.709L226.683 45.591L226.59 45.6836Z" fill="white"/>
<path d="M228.949 46.3914L229.303 46.0374L229.211 45.9448L228.857 46.2989L228.949 46.3914Z" fill="white"/>
<path d="M229.48 45.8606L229.362 45.9786L229.27 45.886L229.388 45.768L229.48 45.8606Z" fill="white"/>
<path d="M229.539 45.8016L229.657 45.6836L229.565 45.591L229.447 45.709L229.539 45.8016Z" fill="white"/>
<path d="M227.073 48.2677L227.427 47.9137L227.335 47.8211L226.98 48.1751L227.073 48.2677Z" fill="white"/>
<path d="M227.014 48.3267L226.896 48.4447L226.803 48.3521L226.921 48.2341L227.014 48.3267Z" fill="white"/>
<path d="M226.719 48.6217L226.837 48.5037L226.744 48.4111L226.626 48.5291L226.719 48.6217Z" fill="white"/>
<path d="M53.9095 22.9103L54.7033 20L55.497 22.9103L58.4072 23.704L55.497 24.4977L54.7033 27.4079L53.9095 24.4977L50.9993 23.704L53.9095 22.9103Z" fill="white"/>
<path d="M52.8358 25.6639L53.4532 25.0466L53.3606 24.9539L52.7432 25.5713L52.8358 25.6639Z" fill="white"/>
<path d="M52.7329 25.7668L52.5272 25.9725L52.4346 25.8799L52.6404 25.6742L52.7329 25.7668Z" fill="white"/>
<path d="M52.2185 26.2812L52.4243 26.0754L52.3317 25.9828L52.1259 26.1886L52.2185 26.2812Z" fill="white"/>
<path d="M56.1077 22.392L56.725 21.7747L56.6324 21.6821L56.0151 22.2994L56.1077 22.392Z" fill="white"/>
<path d="M57.0337 21.466L56.8279 21.6718L56.7353 21.5792L56.9411 21.3734L57.0337 21.466Z" fill="white"/>
<path d="M57.1366 21.3631L57.3423 21.1574L57.2498 21.0648L57.044 21.2706L57.1366 21.3631Z" fill="white"/>
<path d="M52.6816 21.7748L53.2989 22.3921L53.3915 22.2995L52.7742 21.6821L52.6816 21.7748Z" fill="white"/>
<path d="M52.5787 21.6719L52.373 21.4661L52.4655 21.3735L52.6713 21.5793L52.5787 21.6719Z" fill="white"/>
<path d="M52.0643 21.1574L52.27 21.3632L52.3626 21.2706L52.1569 21.0648L52.0643 21.1574Z" fill="white"/>
<path d="M55.9534 25.0466L56.5708 25.6639L56.6634 25.5713L56.046 24.954L55.9534 25.0466Z" fill="white"/>
<path d="M56.8794 25.9726L56.6736 25.7668L56.7662 25.6742L56.972 25.88L56.8794 25.9726Z" fill="white"/>
<path d="M56.9823 26.0755L57.1881 26.2812L57.2807 26.1886L57.0749 25.9829L56.9823 26.0755Z" fill="white"/>
<path d="M665.498 2.91026L664.704 0L663.91 2.91026L661 3.70396L663.91 4.49768L664.704 7.40794L665.498 4.49768L668.408 3.70396L665.498 2.91026Z" fill="white"/>
<path d="M666.571 5.66386L665.954 5.04655L666.047 4.95393L666.664 5.57127L666.571 5.66386Z" fill="white"/>
<path d="M666.674 5.76677L666.88 5.97253L666.973 5.87993L666.767 5.67416L666.674 5.76677Z" fill="white"/>
<path d="M667.189 6.2812L666.983 6.07542L667.076 5.98283L667.281 6.1886L667.189 6.2812Z" fill="white"/>
<path d="M663.3 2.39203L662.682 1.7747L662.775 1.6821L663.392 2.29942L663.3 2.39203Z" fill="white"/>
<path d="M662.374 1.46605L662.579 1.67181L662.672 1.57921L662.466 1.37344L662.374 1.46605Z" fill="white"/>
<path d="M662.271 1.36314L662.065 1.15738L662.157 1.06477L662.363 1.27055L662.271 1.36314Z" fill="white"/>
<path d="M666.726 1.77477L666.108 2.39207L666.016 2.29948L666.633 1.68214L666.726 1.77477Z" fill="white"/>
<path d="M666.829 1.67186L667.034 1.46608L666.942 1.37349L666.736 1.57925L666.829 1.67186Z" fill="white"/>
<path d="M667.343 1.15739L667.137 1.36317L667.045 1.27058L667.25 1.0648L667.343 1.15739Z" fill="white"/>
<path d="M663.454 5.04659L662.836 5.66391L662.744 5.5713L663.361 4.95398L663.454 5.04659Z" fill="white"/>
<path d="M662.528 5.97258L662.734 5.7668L662.641 5.67421L662.435 5.87999L662.528 5.97258Z" fill="white"/>
<path d="M662.425 6.07549L662.219 6.28125L662.127 6.18864L662.332 5.98288L662.425 6.07549Z" fill="white"/>
<path opacity="0.1" d="M661.059 78.0596C660.263 78.0596 659.618 78.7045 659.618 79.5001C659.618 80.2956 660.263 80.9406 661.059 80.9406C661.855 80.9406 662.5 80.2956 662.5 79.5001C662.5 78.7045 661.855 78.0596 661.059 78.0596Z" fill="white"/>
<path opacity="0.1" d="M28.3482 78.0586C29.1438 78.0586 29.7887 78.7035 29.7887 79.4991C29.7887 80.2947 29.1438 80.9396 28.3482 80.9396C27.5527 80.9396 26.9077 80.2947 26.9077 79.4991C26.9077 78.7035 27.5527 78.0586 28.3482 78.0586Z" fill="white"/>
<path d="M322.669 143.669L323.124 142L323.579 143.669L325.248 144.124L323.579 144.579L323.124 146.248L322.669 144.579L321 144.124L322.669 143.669Z" fill="white"/>
<path d="M322.073 145.268L322.427 144.914L322.334 144.821L321.98 145.175L322.073 145.268Z" fill="white"/>
<path d="M322.014 145.327L321.896 145.445L321.803 145.352L321.921 145.234L322.014 145.327Z" fill="white"/>
<path d="M321.719 145.622L321.837 145.504L321.744 145.411L321.626 145.529L321.719 145.622Z" fill="white"/>
<path d="M323.949 143.392L324.303 143.038L324.21 142.945L323.856 143.299L323.949 143.392Z" fill="white"/>
<path d="M324.48 142.861L324.362 142.979L324.269 142.886L324.387 142.768L324.48 142.861Z" fill="white"/>
<path d="M324.539 142.802L324.657 142.684L324.565 142.591L324.447 142.709L324.539 142.802Z" fill="white"/>
<path d="M321.945 143.037L322.299 143.391L322.391 143.299L322.037 142.945L321.945 143.037Z" fill="white"/>
<path d="M321.885 142.979L321.767 142.861L321.86 142.768L321.978 142.886L321.885 142.979Z" fill="white"/>
<path d="M321.591 142.684L321.709 142.802L321.801 142.709L321.683 142.591L321.591 142.684Z" fill="white"/>
<path d="M323.821 144.914L324.175 145.268L324.267 145.175L323.913 144.821L323.821 144.914Z" fill="white"/>
<path d="M324.352 145.445L324.234 145.327L324.326 145.234L324.444 145.352L324.352 145.445Z" fill="white"/>
<path d="M324.411 145.504L324.529 145.622L324.622 145.529L324.504 145.411L324.411 145.504Z" fill="white"/>
<path d="M361.58 36.6689L361.125 35L360.669 36.6689L359 37.1241L360.669 37.5792L361.125 39.2482L361.58 37.5792L363.249 37.1241L361.58 36.6689Z" fill="white"/>
<path d="M362.176 38.2678L361.822 37.9138L361.914 37.8212L362.268 38.1752L362.176 38.2678Z" fill="white"/>
<path d="M362.235 38.3269L362.353 38.4449L362.445 38.3524L362.327 38.2343L362.235 38.3269Z" fill="white"/>
<path d="M362.53 38.6219L362.412 38.504L362.504 38.4113L362.622 38.5294L362.53 38.6219Z" fill="white"/>
<path d="M360.299 36.3916L359.945 36.0376L360.038 35.945L360.392 36.299L360.299 36.3916Z" fill="white"/>
<path d="M359.768 35.8607L359.886 35.9787L359.979 35.886L359.861 35.768L359.768 35.8607Z" fill="white"/>
<path d="M359.709 35.8016L359.591 35.6836L359.684 35.591L359.802 35.709L359.709 35.8016Z" fill="white"/>
<path d="M362.304 36.0374L361.95 36.3914L361.857 36.2989L362.211 35.9449L362.304 36.0374Z" fill="white"/>
<path d="M362.363 35.9786L362.481 35.8606L362.389 35.768L362.271 35.886L362.363 35.9786Z" fill="white"/>
<path d="M362.658 35.6836L362.54 35.8016L362.447 35.709L362.565 35.591L362.658 35.6836Z" fill="white"/>
<path d="M360.428 37.9137L360.074 38.2677L359.981 38.1751L360.335 37.8211L360.428 37.9137Z" fill="white"/>
<path d="M359.897 38.4447L360.015 38.3267L359.922 38.2341L359.804 38.3521L359.897 38.4447Z" fill="white"/>
<path d="M359.838 38.5038L359.72 38.6218L359.627 38.5291L359.745 38.4111L359.838 38.5038Z" fill="white"/>
</svg>
