<svg width="100" height="92" viewBox="0 0 100 92" fill="none" xmlns="http://www.w3.org/2000/svg">
<path fill-rule="evenodd" clip-rule="evenodd" d="M99.4466 1.72656L70.4479 59.724L69.5535 59.2768L97.5547 3.27423L37.6312 19.4831L37.3701 18.5177L99.4466 1.72656Z" fill="#23024D"/>
<path d="M74.001 29.3273C71.9185 30.2308 69.6995 30.8296 67.386 31.1204C69.766 29.715 71.5825 27.5065 72.4365 24.8446C70.2175 26.1531 67.7675 27.0773 65.1565 27.5931C63.0495 25.3742 60.0465 24 56.7705 24C50.4145 24 45.2975 29.1023 45.2975 35.3573C45.2975 36.2573 45.3745 37.1227 45.5635 37.9465C36.019 37.4862 27.5735 32.9619 21.9 26.07C20.9095 27.7696 20.3285 29.715 20.3285 31.8092C20.3285 35.7415 22.376 39.2273 25.428 41.2454C23.5835 41.2108 21.774 40.6812 20.241 39.8469C20.241 39.8815 20.241 39.9265 20.241 39.9715C20.241 45.4892 24.2205 50.0723 29.439 51.1281C28.5045 51.3808 27.486 51.5019 26.429 51.5019C25.694 51.5019 24.952 51.4604 24.2555 51.3081C25.743 55.8046 29.964 59.1104 34.983 59.2177C31.077 62.2396 26.1175 64.0604 20.7485 64.0604C19.807 64.0604 18.904 64.0188 18.001 63.9046C23.0865 67.1481 29.1135 69 35.613 69C56.739 69 68.289 51.6923 68.289 36.69C68.289 36.1881 68.2715 35.7035 68.247 35.2223C70.5255 33.6231 72.44 31.6258 74.001 29.3273Z" fill="#872AB0"/>
<path fill-rule="evenodd" clip-rule="evenodd" d="M46.2287 90.0684C21.5216 90.0684 1.50098 70.237 1.50098 45.784H0.500977C0.500977 70.7985 20.9786 91.0684 46.2287 91.0684C71.4788 91.0684 91.9564 70.7985 91.9564 45.784C91.9564 20.7696 71.4788 0.499725 46.2287 0.499725V1.49973C70.9358 1.49973 90.9564 21.3311 90.9564 45.784C90.9564 70.237 70.9358 90.0684 46.2287 90.0684Z" fill="#23024D"/>
<path fill-rule="evenodd" clip-rule="evenodd" d="M0.546247 44.1755C0.516172 44.8561 0.500977 45.5406 0.500977 46.2285H1.50098C1.50098 45.5553 1.51585 44.8856 1.54527 44.2197L0.546247 44.1755ZM1.42168 37.054C1.15063 38.3848 0.937378 39.7366 0.784665 41.1066L1.77851 41.2174C1.92789 39.8773 2.13647 38.5551 2.40156 37.2536L1.42168 37.054ZM3.40554 30.1561C2.92686 31.4309 2.50347 32.7327 2.13828 34.0587L3.10239 34.3242C3.45952 33.0275 3.87359 31.7543 4.34172 30.5076L3.40554 30.1561ZM6.45073 23.6574C5.77626 24.8435 5.15329 26.0628 4.58488 27.3121L5.4951 27.7263C6.05102 26.5044 6.66031 25.3119 7.32002 24.1517L6.45073 23.6574ZM10.476 17.7167C9.62323 18.7846 8.81732 19.8916 8.06137 21.0346L8.89544 21.5862C9.63489 20.4682 10.4232 19.3854 11.2574 18.3407L10.476 17.7167ZM15.3774 12.4757C14.3676 13.3992 13.3994 14.3675 12.4759 15.3773L13.2138 16.0521C14.1173 15.0643 15.0645 14.1171 16.0523 13.2137L15.3774 12.4757ZM21.0347 8.06119C19.8918 8.81715 18.7848 9.62305 17.7169 10.4758L18.3409 11.2572C19.3856 10.423 20.4684 9.63471 21.5864 8.89526L21.0347 8.06119ZM27.3123 4.5847C26.063 5.15311 24.8437 5.77608 23.6576 6.45055L24.1519 7.31984C25.312 6.66013 26.5045 6.05084 27.7264 5.49492L27.3123 4.5847ZM34.0589 2.1381C32.7329 2.50329 31.4311 2.92668 30.1563 3.40536L30.5078 4.34154C31.7545 3.87341 33.0277 3.45934 34.3244 3.10221L34.0589 2.1381ZM41.1068 0.784481C39.7368 0.937195 38.385 1.15044 37.0542 1.4215L37.2538 2.40138C38.5553 2.13629 39.8775 1.92771 41.2176 1.77833L41.1068 0.784481ZM46.2287 0.500793C45.5408 0.500793 44.8563 0.515991 44.1757 0.546066L44.2199 1.54509C44.8858 1.51566 45.5555 1.50079 46.2287 1.50079V0.500793Z" fill="#23024D"/>
<path fill-rule="evenodd" clip-rule="evenodd" d="M45.7733 18.5C30.7065 18.5 18.501 30.5929 18.501 45.5H17.501C17.501 30.0314 30.1636 17.5 45.7733 17.5C61.3829 17.5 74.0455 30.0314 74.0455 45.5C74.0455 60.9686 61.3829 73.5 45.7733 73.5V72.5C60.84 72.5 73.0455 60.4071 73.0455 45.5C73.0455 30.5929 60.84 18.5 45.7733 18.5Z" fill="#23024D"/>
<path fill-rule="evenodd" clip-rule="evenodd" d="M17.5789 47.341C17.5272 46.6428 17.501 45.9377 17.501 45.2266H18.501C18.501 45.9131 18.5263 46.5936 18.5762 47.2672L17.5789 47.341ZM19.0806 54.5675C18.619 53.2484 18.2525 51.8847 17.9891 50.4846L18.9719 50.2998C19.2259 51.65 19.5794 52.9651 20.0245 54.2372L19.0806 54.5675ZM22.4114 61.1544C21.6189 59.9942 20.9105 58.7719 20.295 57.4962L21.1957 57.0617C21.7893 58.292 22.4726 59.4711 23.2371 60.5904L22.4114 61.1544ZM27.3312 66.6565C26.2627 65.7361 25.2637 64.7371 24.3433 63.6686L25.101 63.0159C25.9891 64.0469 26.9529 65.0108 27.9839 65.8988L27.3312 66.6565ZM33.5036 70.7048C32.2279 70.0893 31.0056 69.3809 29.8454 68.5884L30.4094 67.7627C31.5287 68.5272 32.7078 69.2105 33.9381 69.8041L33.5036 70.7048ZM40.5152 73.0107C39.1151 72.7473 37.7514 72.3808 36.4324 71.9192L36.7626 70.9753C38.0347 71.4204 39.3498 71.7739 40.7 72.0279L40.5152 73.0107ZM45.7733 73.4988C45.0621 73.4988 44.357 73.4726 43.6588 73.4209L43.7326 72.4237C44.4062 72.4735 45.0867 72.4988 45.7733 72.4988V73.4988Z" fill="#23024D"/>
</svg>
